<?xml version="1.0" encoding="UTF-8"?>
<!DOCTYPE svg PUBLIC "-//W3C//DTD SVG 1.1//EN" "http://www.w3.org/Graphics/SVG/1.1/DTD/svg11.dtd">
<!-- Creator: CorelDRAW -->
<svg xmlns="http://www.w3.org/2000/svg" xml:space="preserve" width="210mm" height="297mm" version="1.1" style="shape-rendering:geometricPrecision; text-rendering:geometricPrecision; image-rendering:optimizeQuality; fill-rule:evenodd; clip-rule:evenodd"
viewBox="0 0 21000 29700"
 xmlns:xlink="http://www.w3.org/1999/xlink"
 xmlns:xodm="http://www.corel.com/coreldraw/odm/2003">
 <defs>
  <style type="text/css">
   <![CDATA[
    .fil2 {fill:#FEFEFE;fill-rule:nonzero}
    .fil0 {fill:black;fill-rule:nonzero}
    .fil1 {fill:#2B2A29;fill-rule:nonzero}
   ]]>
  </style>
 </defs>
 <g id="Слой_x0020_1">
  <metadata id="CorelCorpID_0Corel-Layer"/>
  <path class="fil0" d="M-109273.35 -69548.59c102.09,0 153.14,34.87 153.14,104.62 0,69.74 -52.97,104.62 -158.92,104.62 -277.4,0 -539.38,43.59 -785.95,130.77 -244.65,87.19 -447.88,198.59 -609.69,334.21 -161.81,135.62 -288.95,284.8 -381.42,447.54 -92.46,162.75 -138.69,322.58 -138.69,479.51 0,251.87 104.98,460.14 314.95,624.82 209.98,162.75 523.01,244.12 939.1,244.12 475.8,0 832.18,-114.31 1069.12,-342.93 123.28,-120.12 184.93,-275.11 184.93,-464.98 0,-191.8 -62.61,-342.92 -187.82,-453.35 -125.21,-110.44 -286.06,-165.65 -482.55,-165.65 -194.56,0 -388.16,38.75 -580.79,116.24 -190.71,77.5 -341.93,181.15 -453.66,310.96l-158.92 -142.4c111.73,-143.37 277.39,-258.65 497,-345.83 219.6,-87.19 419.94,-130.78 601.02,-130.78 181.07,0 326.51,16.47 436.31,49.41 111.73,32.93 212.86,81.37 303.4,145.3 194.56,139.5 297.62,354.55 309.18,645.16 -7.71,174.37 -59.72,331.3 -156.03,470.8 -96.32,139.49 -223.46,252.83 -381.42,340.01 -319.77,178.25 -696.37,267.37 -1129.8,267.37 -464.25,0 -873.6,-108.5 -1228.05,-325.49 -169.51,-104.62 -305.32,-240.24 -407.42,-406.86 -102.09,-168.55 -153.14,-355.51 -153.14,-560.88 0,-728.47 633.77,-1196.36 1901.3,-1403.66 -213.82,-73.62 -367.93,-171.46 -462.32,-293.52 -94.39,-122.06 -141.59,-248.96 -141.59,-380.7 0,-236.37 129.07,-443.67 387.2,-621.92 260.05,-180.18 586.57,-270.27 979.54,-270.27 360.23,0 660.74,96.88 901.53,290.62 179.15,143.37 272.58,332.27 280.28,566.69 0,108.5 -31.78,190.84 -95.35,247.02 -63.57,54.25 -139.66,81.38 -228.27,81.38 -88.61,0 -164.7,-24.22 -228.27,-72.66 -61.65,-50.37 -92.47,-108.49 -92.47,-174.36 0,-65.88 11.56,-117.22 34.68,-154.03 23.11,-38.75 48.16,-66.84 75.12,-84.28 28.9,-19.37 61.65,-33.9 98.25,-43.59 53.94,-13.56 97.28,-20.34 130.03,-20.34 -61.65,-127.87 -171.45,-229.59 -329.41,-305.15 -156.03,-77.49 -338.07,-116.24 -546.12,-116.24 -208.04,0 -397.79,60.06 -569.23,180.18 -169.52,118.18 -254.28,279.96 -254.28,485.32 0,220.87 76.09,394.27 228.27,520.2 82.84,69.75 182.04,104.62 297.62,104.62l219.61 -11.62z"/>
  <path class="fil0" d="M-106378.06 -66851.7l-427.65 0 54.9 -191.81c19.27,-75.56 53.94,-185.99 104.03,-331.3 111.72,-315.8 167.59,-561.85 167.59,-738.16 0,-75.55 -31.79,-113.33 -95.36,-113.33 -78.98,0 -172.4,47.46 -280.28,142.4 -105.95,92.99 -208.04,207.3 -306.29,342.92 -163.74,226.68 -325.55,476.61 -485.44,749.78l-80.9 139.5 -407.43 0c0,0 29.86,-91.06 89.58,-273.18 167.59,-503.73 251.39,-802.09 251.39,-895.09 0,-94.93 -15.41,-142.4 -46.23,-142.4 -55.87,0 -122.33,66.84 -199.38,200.52 -17.34,31 -31.79,56.19 -43.34,75.56 -11.56,17.44 -25.05,39.72 -40.46,66.84 -13.48,25.19 -22.15,40.69 -26,46.5l-193.6 -113.34c150.25,-246.05 287.99,-427.2 413.2,-543.44 125.21,-118.19 253.31,-177.28 384.31,-177.28 59.71,0 110.76,25.19 153.14,75.56 44.31,50.37 66.46,110.44 66.46,180.18 0,67.81 -3.85,128.84 -11.56,183.09 -7.7,52.31 -16.37,100.74 -26,145.3 -9.64,44.57 -23.12,97.84 -40.46,159.84 -17.33,62 -31.78,109.47 -43.34,142.4 -9.63,32.94 -23.12,77.5 -40.45,133.68 -17.34,56.19 -27.94,89.13 -31.79,98.81 38.53,-67.81 101.13,-169.52 187.82,-305.14 86.69,-135.62 143.51,-220.87 170.48,-255.74 28.9,-36.81 66.46,-83.31 112.69,-139.49 46.23,-58.13 86.69,-103.66 121.36,-136.59 36.6,-32.94 79.95,-69.75 130.03,-110.44 50.09,-40.68 97.28,-71.68 141.59,-92.99 107.87,-52.31 216.71,-78.47 326.51,-78.47 111.73,0 196.49,31.97 254.28,95.9 57.79,62 86.68,135.62 86.68,220.87 0,83.31 -13.48,170.49 -40.45,261.55 -25.04,91.06 -60.68,197.62 -106.91,319.68 -46.23,120.12 -76.09,201.49 -89.57,244.11 184.92,-302.24 326.51,-515.35 424.75,-639.35 267.77,-335.17 532.64,-502.76 794.62,-502.76 129.07,0 221.53,31 277.39,93 55.87,62 83.8,146.27 83.8,252.83 0,106.56 -45.27,283.83 -135.81,531.82 -90.54,246.06 -135.8,397.18 -135.8,453.36 0,56.19 17.33,84.28 52.01,84.28 77.05,0 199.37,-123.03 366.97,-369.08l124.24 116.24c-113.65,203.43 -238.86,361.33 -375.63,473.7 -136.77,110.44 -254.28,165.65 -352.52,165.65 -96.32,0 -163.74,-31.96 -202.27,-95.9 -38.53,-63.93 -57.79,-139.49 -57.79,-226.68 0,-89.12 38.53,-245.08 115.58,-467.88 77.05,-224.75 115.58,-397.18 115.58,-517.3 0,-75.55 -33.71,-113.33 -101.13,-113.33 -192.64,0 -470.99,283.83 -835.07,851.49 -148.33,230.56 -252.35,404.92 -312.07,523.11z"/>
  <path class="fil0" d="M-102228.72 -67409.68c-86.69,174.37 -209.98,318.7 -369.86,433.01 -157.96,114.31 -340,171.46 -546.12,171.46 -206.12,0 -370.82,-79.43 -494.11,-238.3 -90.54,358.42 -167.59,614.16 -231.16,767.22 -200.34,474.67 -474.84,712.97 -823.51,714.91 -84.76,0 -156.04,-29.06 -213.83,-87.19 -57.79,-58.12 -86.68,-125.93 -86.68,-203.43 0,-75.56 19.26,-135.62 57.79,-180.18 38.53,-42.62 89.57,-63.93 153.14,-63.93 63.57,0 116.55,14.53 158.93,43.59 42.38,31 63.57,77.5 63.57,139.5 0,63.93 -33.71,131.74 -101.14,203.42l17.34 23.25c119.43,0 228.27,-175.33 326.52,-526.01 38.52,-141.43 66.45,-251.86 83.79,-331.29 17.34,-79.44 27.93,-126.91 31.79,-142.41l303.4 -1200.23c-94.4,62 -214.79,182.12 -361.19,360.36l-112.7 -130.77c84.76,-118.19 184.93,-233.46 300.51,-345.83 115.59,-112.37 188.79,-184.06 219.61,-215.06 150.25,-447.54 295.69,-782.71 436.31,-1005.52 146.41,-224.74 308.22,-402.01 485.44,-531.82l78.02 69.75c-121.36,145.3 -224.42,330.33 -309.18,555.07 -84.76,224.74 -139.66,440.76 -164.7,648.07 206.12,-83.31 401.64,-124.97 586.57,-124.97 186.86,0 340.96,59.09 462.32,177.28 121.36,118.18 182.04,274.14 182.04,467.88 0,193.75 -44.3,377.8 -132.91,552.17zm-1126.92 -810.81l-219.6 976.46c34.68,75.56 92.47,132.71 173.37,171.46 80.91,38.75 174.34,58.12 280.29,58.12 105.94,0 203.22,-45.53 291.84,-136.59 165.66,-170.49 248.5,-392.32 248.5,-665.5 0,-244.11 -65.5,-408.8 -196.49,-494.04 -52.01,-34.88 -121.36,-52.31 -208.05,-52.31 -84.76,0 -208.04,47.46 -369.86,142.4z"/>
  <path class="fil0" d="M-100263.85 -68543.07l450.76 0 -228.27 868.93c-36.6,122.06 -54.9,233.46 -54.9,334.21 0,98.8 17.34,148.21 52.01,148.21 34.67,0 81.87,-30.03 141.59,-90.09 61.64,-62 113.65,-124 156.03,-185.99l66.46 -93 124.25 116.24c-63.57,124 -144.48,237.34 -242.72,340.02 -190.71,199.56 -356.37,299.33 -497,299.33 -165.66,0 -248.5,-128.83 -248.5,-386.51 0,-42.63 1.93,-74.59 5.78,-95.9 -28.89,98.8 -83.79,185.99 -164.7,261.55 -154.11,147.24 -328.44,220.86 -523,220.86 -192.64,0 -347.71,-65.87 -465.21,-197.61 -115.59,-133.69 -173.38,-300.3 -173.38,-499.86 0,-309.99 100.17,-571.54 300.51,-784.65 200.34,-213.12 435.36,-319.68 705.05,-319.68 134.84,0 246.57,37.78 335.18,113.34 88.61,73.62 146.4,170.49 173.37,290.61l86.69 -340.01zm-482.55 185.99c-111.73,0 -216.72,47.47 -314.96,142.4 -96.32,93 -170.48,206.34 -222.49,340.02 -52.01,131.74 -78.02,260.58 -78.02,386.51 0,125.93 26.97,227.65 80.91,305.15 55.86,77.49 140.62,116.24 254.27,116.24 115.59,0 219.61,-52.31 312.07,-156.93 175.3,-201.49 262.95,-440.76 262.95,-717.81 0,-277.05 -98.25,-415.58 -294.73,-415.58z"/>
  <path class="fil0" d="M-99006.91 -68543.07c198.41,-619.98 400.68,-1139.21 606.79,-1557.69l358.31 29.06c-21.19,62 -73.21,211.18 -156.04,447.55 -179.15,521.16 -294.73,881.52 -346.74,1081.08l453.65 0 -46.23 191.8 -468.1 0c-177.23,550.23 -265.84,885.4 -265.84,1005.52 0,118.19 11.56,177.28 34.68,177.28 25.04,0 47.19,-4.85 66.46,-14.53 52.01,-29.06 163.74,-170.5 335.18,-424.3l118.47 107.53c-129.07,236.36 -261.98,411.7 -398.75,526.01 -136.77,112.37 -249.46,168.55 -338.08,168.55 -88.61,0 -156.03,-31 -202.26,-92.99 -44.31,-62 -66.46,-141.43 -66.46,-238.31 0,-246.05 85.72,-650.97 257.17,-1214.76l-303.4 0 46.23 -191.8 314.96 0z"/>
  <path class="fil0" d="M-96854.22 -67119.07c0,-100.74 40.45,-262.52 121.35,-485.32 80.91,-222.81 121.36,-381.67 121.36,-476.61 0,-96.87 -33.71,-145.3 -101.13,-145.3 -65.49,0 -145.44,47.46 -239.83,142.4 -94.39,92.99 -184.93,207.3 -271.61,342.92 -142.55,218.93 -286.07,468.86 -430.54,749.78l-75.13 139.5 -416.09 0c94.39,-701.35 184.93,-1220.58 271.62,-1557.69 86.68,-337.11 169.51,-624.82 248.49,-863.12 78.98,-238.3 163.74,-449.48 254.28,-633.54 204.2,-422.36 439.21,-735.25 705.04,-938.68l219.61 101.72c-206.12,207.3 -395.87,572.5 -569.24,1095.61 -171.44,521.16 -362.15,1240.92 -572.12,2159.25 11.56,-19.37 34.67,-60.06 69.35,-122.05 36.6,-63.94 64.53,-111.41 83.79,-142.41 19.27,-32.93 48.16,-81.37 86.69,-145.3 40.45,-63.94 74.16,-114.31 101.13,-151.12 26.97,-38.75 61.64,-86.22 104.02,-142.4 44.31,-56.19 82.84,-100.75 115.59,-133.68 34.67,-34.88 75.12,-71.69 121.36,-110.44 46.23,-40.68 90.53,-72.65 132.91,-95.9 98.24,-50.37 203.23,-75.56 314.96,-75.56 111.73,0 195.52,31 251.39,93 57.79,62 86.68,145.31 86.68,249.93 0,104.62 -48.16,280.92 -144.47,528.91 -96.32,246.05 -144.48,398.14 -144.48,456.26 0,58.13 15.41,87.19 46.23,87.19 80.91,0 203.23,-123.03 366.97,-369.08l124.25 116.24c-123.29,213.12 -252.35,372.96 -387.19,479.52 -132.92,106.55 -242.72,159.83 -329.41,159.83 -84.76,0 -150.25,-27.12 -196.49,-81.37 -46.23,-54.25 -69.34,-131.74 -69.34,-232.49z"/>
  <path class="fil0" d="M-95204.31 -66805.21c-80.91,0 -144.48,-25.18 -190.71,-75.56 -46.23,-50.37 -69.35,-119.15 -69.35,-206.33 0,-89.12 22.16,-209.24 66.46,-360.36 46.23,-153.06 91.5,-291.58 135.81,-415.58 46.23,-123.99 69.35,-206.33 69.35,-247.02 0,-42.62 -13.49,-63.93 -40.46,-63.93 -67.42,0 -176.26,133.68 -326.51,401.04l-193.6 -113.34c283.17,-480.48 543.23,-720.72 780.17,-720.72 161.81,0 242.72,102.69 242.72,308.05 0,60.06 -19.26,155.96 -57.79,287.71l-208.05 598.66c-21.18,56.19 -31.78,107.53 -31.78,154.03 0,44.56 17.34,66.84 52.01,66.84 65.5,0 185.89,-122.06 361.19,-366.17l121.36 113.33c-104.02,193.75 -228.27,348.74 -372.75,464.99 -142.55,116.24 -255.24,174.36 -338.07,174.36zm823.51 -2659.11c0,77.5 -26.01,148.22 -78.02,212.15 -52.01,63.94 -122.32,95.9 -210.93,95.9 -88.61,0 -155.07,-26.15 -199.38,-78.46 -44.3,-54.25 -66.46,-122.06 -66.46,-203.43 0,-81.37 26.97,-153.06 80.91,-215.05 55.86,-63.94 127.14,-95.91 213.82,-95.91 86.69,0 151.22,28.1 193.6,84.28 44.31,54.25 66.46,121.09 66.46,200.52z"/>
  <path class="fil0" d="M-92722.22 -68543.07l450.77 0 -228.28 868.93c-36.6,122.06 -54.9,233.46 -54.9,334.21 0,98.8 17.34,148.21 52.02,148.21 34.67,0 81.87,-30.03 141.58,-90.09 61.65,-62 113.66,-124 156.04,-185.99l66.46 -93 124.24 116.24c-63.56,124 -144.47,237.34 -242.71,340.02 -190.71,199.56 -356.38,299.33 -497,299.33 -165.67,0 -248.5,-128.83 -248.5,-386.51 0,-42.63 1.93,-74.59 5.78,-95.9 -28.9,98.8 -83.8,185.99 -164.7,261.55 -154.11,147.24 -328.44,220.86 -523.01,220.86 -192.63,0 -347.7,-65.87 -465.21,-197.61 -115.58,-133.69 -173.37,-300.3 -173.37,-499.86 0,-309.99 100.17,-571.54 300.51,-784.65 200.34,-213.12 435.36,-319.68 705.04,-319.68 134.85,0 246.57,37.78 335.19,113.34 88.61,73.62 146.4,170.49 173.37,290.61l86.68 -340.01zm-482.55 185.99c-111.72,0 -216.71,47.47 -314.95,142.4 -96.32,93 -170.48,206.34 -222.49,340.02 -52.02,131.74 -78.02,260.58 -78.02,386.51 0,125.93 26.97,227.65 80.9,305.15 55.87,77.49 140.63,116.24 254.28,116.24 115.58,0 219.6,-52.31 312.07,-156.93 175.3,-201.49 262.95,-440.76 262.95,-717.81 0,-277.05 -98.25,-415.58 -294.74,-415.58z"/>
  <path class="fil0" d="M-89497.52 -71042.35c687.71,0 1031.56,406.86 1031.56,1220.58 0,618.04 -203.23,1445.32 -609.69,2481.84 560.57,-302.24 1001.7,-652.92 1323.4,-1052.02 298.59,-371.99 539.38,-812.75 722.38,-1322.29 -175.3,-87.19 -321.7,-199.56 -439.21,-337.11 -117.51,-139.5 -176.26,-288.68 -176.26,-447.55 0,-158.87 48.16,-288.67 144.48,-389.42 96.31,-102.68 217.68,-154.03 364.08,-154.03 146.4,0 261.02,53.28 343.85,159.84 82.83,104.62 124.25,250.9 124.25,438.83 0,187.93 -35.64,406.86 -106.91,656.78 138.69,71.69 285.09,124 439.2,156.93l-52.01 136.59c-221.53,-56.18 -366,-97.84 -433.43,-124.96 -190.7,579.29 -516.25,1105.3 -976.65,1578.03 -458.47,470.79 -1046.01,866.99 -1762.61,1188.61l-236.94 0c123.29,-242.18 254.28,-593.82 392.98,-1054.93 269.69,-887.34 404.53,-1579 404.53,-2074.98 0,-590.91 -177.23,-886.37 -531.67,-886.37 -157.96,0 -300.51,40.69 -427.65,122.06 -127.14,79.43 -230.2,181.15 -309.18,305.14 -78.98,124 -144.47,266.4 -196.49,427.2 -96.31,286.74 -144.47,585.11 -144.47,895.09 0,263.49 28.89,492.11 86.68,685.85 104.03,348.74 259.1,591.88 465.22,729.44l-135.81 113.34c-204.19,-172.43 -354.45,-400.08 -450.76,-682.94 -94.4,-282.87 -141.59,-542.48 -141.59,-778.85 0,-236.36 14.45,-438.82 43.34,-607.38 28.9,-168.55 76.09,-336.14 141.59,-502.76 67.42,-168.55 149.29,-316.77 245.61,-444.64 96.31,-129.8 218.64,-234.42 366.97,-313.86 148.32,-81.37 312.06,-122.06 491.21,-122.06zm2427.2 278.99c-69.35,0 -129.07,27.13 -179.15,81.37 -50.09,52.32 -75.13,124.97 -75.13,217.96 0,91.06 32.75,188.9 98.24,293.52 67.43,102.69 153.15,192.78 257.17,270.27 63.57,-230.55 95.35,-405.89 95.35,-526.01 0,-224.74 -65.49,-337.11 -196.48,-337.11z"/>
  <path class="fil0" d="M-86720.69 -66805.21c-80.91,0 -144.48,-25.18 -190.71,-75.56 -46.23,-50.37 -69.35,-119.15 -69.35,-206.33 0,-89.12 22.15,-209.24 66.46,-360.36 46.23,-153.06 91.5,-291.58 135.81,-415.58 46.23,-123.99 69.35,-206.33 69.35,-247.02 0,-42.62 -13.49,-63.93 -40.46,-63.93 -67.42,0 -176.26,133.68 -326.51,401.04l-193.6 -113.34c283.17,-480.48 543.23,-720.72 780.17,-720.72 161.82,0 242.72,102.69 242.72,308.05 0,60.06 -19.27,155.96 -57.79,287.71l-208.05 598.66c-21.19,56.19 -31.78,107.53 -31.78,154.03 0,44.56 17.34,66.84 52.01,66.84 65.5,0 185.89,-122.06 361.19,-366.17l121.36 113.33c-104.02,193.75 -228.27,348.74 -372.75,464.99 -142.55,116.24 -255.24,174.36 -338.07,174.36zm823.51 -2659.11c0,77.5 -26,148.22 -78.02,212.15 -52.01,63.94 -122.32,95.9 -210.93,95.9 -88.61,0 -155.07,-26.15 -199.38,-78.46 -44.3,-54.25 -66.46,-122.06 -66.46,-203.43 0,-81.37 26.97,-153.06 80.91,-215.05 55.86,-63.94 127.14,-95.91 213.82,-95.91 86.69,0 151.22,28.1 193.6,84.28 44.31,54.25 66.46,121.09 66.46,200.52z"/>
  <path class="fil0" d="M-84761.6 -70716.86l468.1 0c-82.83,143.37 -209.97,462.08 -381.42,956.12 -171.44,492.1 -328.44,988.08 -470.99,1487.94 -140.62,497.91 -210.93,803.06 -210.93,915.43 0,110.43 13.48,165.65 40.45,165.65 80.91,0 207.08,-123.03 378.53,-369.08l121.36 116.24c-84.76,147.25 -176.26,271.24 -274.5,371.99 -173.37,178.24 -314,267.36 -421.87,267.36 -196.49,0 -294.73,-119.15 -294.73,-357.45 0,-354.55 116.54,-913.49 349.63,-1676.84 235.01,-763.34 467.14,-1389.13 696.37,-1877.36z"/>
  <path class="fil0" d="M-83588.46 -70716.86l468.11 0c-82.84,143.37 -209.97,462.08 -381.42,956.12 -171.45,492.1 -328.44,988.08 -470.99,1487.94 -140.62,497.91 -210.94,803.06 -210.94,915.43 0,110.43 13.49,165.65 40.46,165.65 80.9,0 207.08,-123.03 378.52,-369.08l121.36 116.24c-84.76,147.25 -176.26,271.24 -274.5,371.99 -173.37,178.24 -313.99,267.36 -421.87,267.36 -196.49,0 -294.73,-119.15 -294.73,-357.45 0,-354.55 116.54,-913.49 349.63,-1676.84 235.01,-763.34 467.14,-1389.13 696.37,-1877.36z"/>
  <path class="fil0" d="M-81892.31 -68543.07l450.76 0 -228.27 868.93c-36.6,122.06 -54.9,233.46 -54.9,334.21 0,98.8 17.34,148.21 52.01,148.21 34.68,0 81.87,-30.03 141.59,-90.09 61.64,-62 113.65,-124 156.03,-185.99l66.46 -93 124.25 116.24c-63.57,124 -144.48,237.34 -242.72,340.02 -190.71,199.56 -356.37,299.33 -497,299.33 -165.66,0 -248.49,-128.83 -248.49,-386.51 0,-42.63 1.92,-74.59 5.77,-95.9 -28.89,98.8 -83.79,185.99 -164.7,261.55 -154.11,147.24 -328.44,220.86 -523,220.86 -192.64,0 -347.7,-65.87 -465.21,-197.61 -115.58,-133.69 -173.37,-300.3 -173.37,-499.86 0,-309.99 100.17,-571.54 300.51,-784.65 200.34,-213.12 435.35,-319.68 705.04,-319.68 134.84,0 246.57,37.78 335.18,113.34 88.62,73.62 146.4,170.49 173.37,290.61l86.69 -340.01zm-482.55 185.99c-111.73,0 -216.71,47.47 -314.96,142.4 -96.31,93 -170.48,206.34 -222.49,340.02 -52.01,131.74 -78.02,260.58 -78.02,386.51 0,125.93 26.97,227.65 80.91,305.15 55.86,77.49 140.62,116.24 254.28,116.24 115.58,0 219.6,-52.31 312.07,-156.93 175.29,-201.49 262.94,-440.76 262.94,-717.81 0,-277.05 -98.24,-415.58 -294.73,-415.58z"/>
  <path class="fil0" d="M-81016.79 -66424.5c-80.91,-67.81 -121.36,-130.78 -121.36,-188.9 0,-58.12 23.12,-101.72 69.35,-130.78l349.63 -345.83c-204.19,-172.43 -306.28,-378.76 -306.28,-619 0,-242.18 104.98,-455.3 314.95,-639.35 211.9,-184.06 449.8,-276.08 713.71,-276.08 59.72,0 104.99,1.93 135.81,5.81 15.41,-147.25 86.68,-285.77 213.82,-415.58 129.07,-131.74 289.92,-197.62 482.55,-197.62 194.56,0 291.84,87.19 291.84,261.56 0,75.56 -22.15,135.62 -66.46,180.18 -42.37,42.62 -93.42,63.93 -153.14,63.93 -59.72,0 -112.69,-18.4 -158.92,-55.22 -46.24,-36.81 -78.02,-88.15 -95.36,-154.02 -115.58,31 -209,81.37 -280.28,151.12 -69.35,67.81 -104.02,128.84 -104.02,183.08 154.1,56.19 281.24,153.06 381.41,290.62 100.17,135.62 150.26,277.05 150.26,424.29 0,253.8 -101.14,471.76 -303.4,653.88 -202.27,182.12 -430.54,273.18 -684.82,273.18 -167.59,0 -305.32,-21.31 -413.2,-63.94 -113.65,94.94 -170.48,159.84 -170.48,194.71 0,54.25 47.2,84.28 141.59,90.09l572.12 23.25c194.57,7.75 346.75,39.72 456.55,95.91 109.8,58.12 164.7,139.49 164.7,244.11 0,104.62 -29.86,196.65 -89.58,276.08 -59.71,79.44 -141.58,141.43 -245.61,186 -198.41,85.24 -448.83,127.87 -751.27,127.87 -150.25,0 -288.95,-16.47 -416.09,-49.41 -248.5,-63.93 -372.75,-162.74 -372.75,-296.42 0,-106.56 78.02,-195.68 234.06,-267.37 23.11,-11.62 43.33,-20.34 60.67,-26.15zm725.27 -1877.36c-82.83,83.31 -142.55,180.18 -179.15,290.61 -34.67,108.49 -52.01,206.33 -52.01,293.52 0,85.24 4.81,157.9 14.45,217.96 9.63,58.12 26,117.21 49.12,177.27 50.09,127.87 138.69,191.81 265.83,191.81 127.14,0 230.2,-44.56 309.18,-133.69 138.7,-153.05 208.05,-372.95 208.05,-659.69 0,-110.43 -28.9,-221.83 -86.69,-334.2 -57.79,-114.31 -139.66,-171.46 -245.61,-171.46 -105.95,0 -200.34,42.62 -283.17,127.87zm-184.93 2348.15c429.58,0 644.37,-75.56 644.37,-226.68 0,-129.81 -331.34,-194.71 -994,-194.71 -48.16,0 -89.57,27.12 -124.25,81.37 -34.67,54.25 -52.01,104.62 -52.01,151.12 0,73.62 45.27,123.03 135.81,148.21 90.53,27.13 220.57,40.69 390.08,40.69z"/>
  <path class="fil0" d="M-78433.56 -67424.21c11.56,222.8 160.85,334.2 447.87,334.2 105.95,0 215.76,-30.03 329.41,-90.09 115.58,-61.99 209.01,-134.65 280.28,-217.96l124.25 81.37c-159.89,269.31 -415.12,433.99 -765.72,494.05 -77.05,11.62 -151.22,17.43 -222.49,17.43 -208.05,0 -381.42,-68.77 -520.11,-206.33 -138.7,-139.5 -208.05,-309.02 -208.05,-508.57 0,-199.56 60.68,-383.61 182.04,-552.17 121.36,-170.49 272.58,-302.24 453.65,-395.23 183.01,-93 363.12,-139.5 540.34,-139.5 177.23,0 330.37,40.69 459.44,122.06 130.99,81.37 197.44,190.84 199.37,328.39 3.85,137.56 -35.64,256.71 -118.47,357.46 -82.83,98.81 -187.82,174.36 -314.96,226.68 -252.35,102.68 -499.88,154.02 -742.6,154.02l-124.25 -5.81zm-17.34 -159.84c213.83,-7.75 385.27,-41.65 514.34,-101.71 130.99,-62 221.53,-131.75 271.61,-209.25 52.01,-79.43 78.02,-161.77 78.02,-247.02 0,-87.18 -22.15,-151.12 -66.46,-191.8 -44.3,-42.62 -91.5,-63.94 -141.59,-63.94 -123.28,0 -236.94,43.6 -340.96,130.78 -102.09,85.25 -180.11,189.87 -234.05,313.86 -53.94,122.06 -80.91,245.09 -80.91,369.08z"/>
  <path class="fil0" d="M-43409.66 -90573l813.19 0 0 211.67 69.02 0 55.75 -40.68 -124.77 -170.99 173.94 -126.93 124.77 170.98 -173.94 126.94 -124.77 -170.99 0 211.67 -1024.86 0 0 7192.55 5096.06 0 0 -7192.55 -1147.08 0 0 -211.67 935.42 0 0 7615.88 -4672.73 0 0 -7615.88zm987.13 -126.93l173.94 -126.92 94.66 189.31 178.65 -89.32 -94.66 -189.32 178.64 -89.32 94.66 189.32 -178.64 89.32 -94.66 -189.32 -178.64 89.32 -0.01 0 124.77 170.98 -173.94 126.93 -124.77 -170.98zm531.23 -305.57c236.08,-93.19 487.6,-141.04 741.41,-141.04l0 211.67 29.58 0 0 -211.67c237.61,31.27 471.51,86.09 698.26,163.66l-68.52 200.27 16.32 5.59 68.52 -200.28 14.77 5.5 -73.82 198.38 -14.77 -5.5 73.82 -198.38 -16.32 -5.58 -68.52 200.27c-213.46,-73.03 -433.67,-124.64 -657.35,-154.07l27.61 -209.86 -29.58 0 0 211.67c-227.2,0 -452.36,42.83 -663.69,126.25l-77.72 -196.88zm1500.34 33.7c258.21,96.08 500.47,230.52 718.61,398.8l-129.29 167.6c-201.3,-155.29 -424.86,-279.36 -663.14,-368.02l73.82 -198.38z"/>
  <path class="fil0" d="M-92061.06 -77454.79l-211.67 0c0,1222.83 -991.3,2214.13 -2214.13,2214.13l0 211.67c-1339.73,0 -2425.8,-1086.07 -2425.8,-2425.8l211.67 0c0,1222.83 991.3,2214.13 2214.13,2214.13l0 211.67c1339.73,0 2425.8,-1086.07 2425.8,-2425.8zm-4851.6 0c0,-1339.73 1086.07,-2425.8 2425.8,-2425.8l0 211.67c-1222.83,0 -2214.13,991.3 -2214.13,2214.13l-211.67 0zm2425.8 -2425.8c1339.73,0 2425.8,1086.07 2425.8,2425.8l-211.67 0c0,-1222.83 -991.3,-2214.13 -2214.13,-2214.13l0 -211.67z"/>
  <path class="fil1" d="M1067.09 -95801.44c1339.73,0 2425.83,1086.07 2425.83,2425.8 0,1339.73 -1086.09,2425.79 -2425.83,2425.79 -1339.72,-0.01 -2425.79,-1086.07 -2425.79,-2425.79 0,-1339.73 1086.07,-2425.79 2425.79,-2425.8l0 211.67c1222.84,0 2214.16,991.3 2214.17,2214.13l211.66 0 -211.66 0c0,1222.82 -991.33,2214.12 -2214.17,2214.12l0 211.67 0.01 -211.67c-1222.83,0 -2214.13,-991.3 -2214.13,-2214.12l-211.67 0 211.67 0c0,-1222.83 991.3,-2214.13 2214.13,-2214.13l-0.01 -211.67z"/>
  <path class="fil0" d="M-94912.53 -79583.95l187.21 284.11c3.45,5.24 6.38,10.8 8.75,16.62l59.76 147c18.3,45.03 84.01,38.53 93.13,-9.22l0 0c1.63,-8.54 5.52,-16.49 11.25,-23.03l60.47 -68.91c31.64,-36.07 69.74,-65.92 112.34,-88.01l144.67 -75.02 47.23 -23.55c23.52,-11.73 42.12,-31.42 52.5,-55.56l7.94 -18.49c0.71,-1.66 1.08,-3.44 1.08,-5.24l0 0c0,-15.76 22.57,-18.39 26.19,-3.05l5.8 24.57c0.95,4.01 0.33,8.22 -1.71,11.79l-16.42 28.65c-9.07,15.82 -22.29,28.86 -38.25,37.7l-50.9 28.2 -169.63 101.51c-26.19,15.67 -49.99,35.04 -70.64,57.51l-20.21 21.99c-26.58,28.92 -44.6,64.66 -52.04,103.23l-28.71 148.91c-1.03,5.32 1.61,10.67 6.46,13.09l0 0c5,2.49 11.06,1.22 14.65,-3.07l58.97 -70.57c12.22,-14.63 27.55,-26.35 44.87,-34.33l42.25 -19.44c26.68,-12.28 54.86,-21 83.81,-25.93l299.35 -50.97 53.38 -8.87c31.2,-5.19 61.59,-14.43 90.4,-27.49l8.29 -3.75c26.74,-12.13 51.57,-28.09 73.7,-47.4l3.22 -2.81c20.11,-17.55 37.54,-37.97 51.72,-60.59l4.26 -6.8c10.73,-17.13 19.01,-35.68 24.57,-55.11l5.27 -18.4c2.04,-7.1 3.07,-14.46 3.07,-21.84l0 -10.88c0,-26.85 -16.81,-50.82 -42.04,-59.97l-24.26 -8.8c-14.9,-5.4 -31.53,0.61 -39.53,14.29l-6.88 11.76c-13.02,22.26 -46.69,16.32 -51.31,-9.04l0 0c-1.99,-10.92 2.71,-21.97 11.95,-28.12l30.49 -20.27c18.89,-12.56 42.08,-16.88 64.22,-11.98l10.76 2.39c19.51,4.32 37.38,14.11 51.53,28.22l0 0c23.25,23.19 34.34,55.9 29.99,88.44l-5 37.39c-3.18,23.83 -11.07,46.79 -23.21,67.54l-37.1 63.43c-2.03,3.45 -4.76,6.44 -8.02,8.76l0 0c-25.06,17.86 -7.65,57.24 22.43,50.72l46.69 -10.12c7.25,-1.57 14.81,-1 21.74,1.66l66.8 25.63c20.06,7.69 36.24,23.03 44.98,42.66l1.19 2.67c11.46,25.7 7.8,55.63 -9.5,77.82l-6.87 8.8c-14.33,18.38 -38.15,26.59 -60.76,20.95l-24.86 -6.2c-3.05,-0.76 -5.55,-2.96 -6.68,-5.9l-6.08 -15.76c-3.61,-9.35 9.52,-15.77 14.69,-7.18l0 0c1.01,1.68 2.58,2.94 4.44,3.56l13.52 4.49c19.96,6.64 41.9,-0.88 53.59,-18.37l2.47 -3.71c7.21,-10.78 10.18,-23.84 8.34,-36.67l-0.35 -2.4c-3.16,-22.1 -18.55,-40.51 -39.73,-47.56l-16.58 -5.51c-15.76,-5.24 -32.7,-5.86 -48.81,-1.8l-622.39 156.96c-52.15,13.15 -98.06,44.14 -129.75,87.6l0 0c-11.87,16.27 -21.55,34.03 -28.8,52.83l-10.77 27.93c-13.26,34.38 -18.74,71.26 -16.04,108.01l26.39 359.65c7.07,96.37 128.41,134.41 189.22,59.31l0 0c4.09,-5.05 8.64,-9.72 13.58,-13.94l205.11 -175.33c14.25,-12.18 25.33,-27.62 32.31,-45.02l0 0c4.05,-10.1 9.51,-19.59 16.2,-28.17l7.99 -10.24c26.34,-33.78 41.61,-74.86 43.72,-117.63l2.77 -56.17c1.49,-30.19 -10.23,-59.53 -32.11,-80.38l-8.69 -8.29c-10.02,-9.54 -22.77,-15.72 -36.47,-17.67l-7.84 -1.12c-18.38,-2.62 -36.78,4.66 -48.4,19.14l0 0c-9.36,11.67 -13.3,26.78 -10.84,41.54l1.54 9.19c1.94,11.61 6.65,22.58 13.72,31.99l13.53 17.99c0.53,0.7 0.94,1.48 1.22,2.32l0 0c2.5,7.49 -6.04,13.81 -12.47,9.22l-33.76 -24.05c-2.88,-2.04 -5.21,-4.77 -6.79,-7.92l-6.16 -12.29c-5.37,-10.7 -8.16,-22.51 -8.16,-34.48l0 -1.61c0,-24.48 10.71,-47.74 29.32,-63.65l3.19 -2.72c16.81,-14.37 38.19,-22.27 60.31,-22.27l1.25 0c25.47,0 49.9,10.1 67.93,28.09l25.82 25.75c8.61,8.58 16.34,17.99 23.09,28.09l6.58 9.84 1.1 2.19c4.83,9.63 8.59,19.77 11.21,30.22l0 0c2.94,11.72 4.42,23.75 4.42,35.83l0 6.84 -6.09 79.03c-1.51,19.5 -5.98,38.66 -13.26,56.81l0 0c-3.82,9.53 -8.4,18.75 -13.7,27.55l-17.14 28.49 -1.23 2.46c-10.96,21.85 4.93,47.59 29.37,47.59l0 0c3.53,0 7.03,0.57 10.37,1.68l28.14 9.35c11.3,3.76 22.11,8.84 32.21,15.13l29.35 18.3c14.35,8.94 24.66,23.1 28.77,39.5l0 0c1.3,5.18 1.96,10.51 1.96,15.86l0 9.19c0,15.88 -5.16,31.33 -14.71,44.02l0 0c-6.83,9.09 -15.68,16.46 -25.85,21.53l-2.48 1.23c-10.21,5.09 -21.45,7.74 -32.85,7.74l0 0c-15.9,0 -31.37,-5.14 -44.1,-14.67l-11.75 -8.78c-1.39,-1.04 -2.56,-2.34 -3.46,-3.83l0 0c-6.91,-11.49 5.47,-24.89 17.47,-18.91l20.15 10.05c3.62,1.8 7.71,2.47 11.72,1.89l20.69 -2.94c18.79,-2.68 33.56,-17.44 36.25,-36.23l0 0c2.34,-16.3 -4.91,-32.5 -18.63,-41.62l-16.95 -11.26c-7.14,-4.75 -15.04,-8.24 -23.36,-10.31l-32.44 -8.09c-14.48,-3.61 -29.5,-4.51 -44.31,-2.67l0 0c-28.73,3.58 -55.22,17.33 -74.69,38.75l-154.86 170.41c-38.25,42.09 -71.54,88.44 -99.22,138.12l-3.11 5.59c-25.86,46.42 -47.02,95.3 -63.17,145.92l-1.45 4.54c-21.79,68.3 -34.81,139.1 -38.76,210.69l-14.97 271.76 0 0c-8.74,158.58 165.66,260.5 299.53,175.05l97.81 -62.43 270.1 -207.63c87.4,-67.19 167.86,-142.96 240.18,-226.17l0 0 0 0c61.12,-94.2 110.48,-195.51 146.98,-301.7l29.66 -86.26c10.49,-30.51 18.43,-61.84 23.75,-93.67l6.7 -40.08c6.88,-41.18 6.46,-83.26 -1.26,-124.29l-7.87 -41.86c-3.67,-19.52 -11.25,-38.1 -22.29,-54.61l0 0 -21.29 -29.73c-13.53,-18.89 -30.99,-34.63 -51.18,-46.13l-6.81 -3.88c-13.93,-7.94 -29.29,-13.05 -45.21,-15.03l-15.71 -1.96c-17.53,-2.19 -35.29,1.72 -50.29,11.07l-22.91 14.28c-12.6,7.86 -19.23,22.54 -16.78,37.19l0 0c2.58,15.46 14.71,27.57 30.17,30.14l22.67 3.77c1.1,0.18 2.22,0.09 3.28,-0.26l0 0c7.58,-2.52 12.6,7.78 5.95,12.2l-5.61 3.73c-1.27,0.84 -2.76,1.29 -4.29,1.29l-20.41 0c-25.81,0 -48.16,-17.92 -53.78,-43.11l0 0c-4.39,-19.7 2.35,-40.23 17.55,-53.5l16.36 -14.28c16.69,-14.56 38.1,-22.59 60.25,-22.59l20.23 0c29.81,0 58.9,9.15 83.34,26.22l14.79 10.32c20.69,14.45 38.51,32.63 52.54,53.61l4.89 7.32c15.93,23.83 27.64,50.23 34.61,78.03l6.2 24.72 0 0c7.31,21.88 35.78,27.26 50.57,9.56l6.22 -7.45c1.17,-1.4 2.45,-2.71 3.83,-3.92l49.96 -43.59c9.89,-8.63 20.84,-15.96 32.58,-21.82l7.12 -3.55c16.7,-8.32 35.09,-12.65 53.74,-12.65l8.21 0c29.89,0 58.29,13.04 77.78,35.7l5.35 6.23c9.24,10.75 15.22,23.92 17.23,37.95l0.35 2.49c3.1,21.66 -4.19,43.52 -19.69,58.97l-13.58 13.55c-2.35,2.34 -5.42,3.81 -8.7,4.18l-5.97 0.66c-14.42,1.59 -20.69,-17.7 -8.09,-24.89l0 0c1.59,-0.9 2.97,-2.12 4.07,-3.57l4.33 -5.77c11.59,-15.41 12.89,-36.24 3.3,-52.96l-2.98 -5.21c-9.21,-16.08 -25.62,-26.71 -44.06,-28.55l-17.76 -1.77c-23.44,-2.34 -46.89,4.41 -65.51,18.85l-11.69 9.07c-22.44,17.4 -38.51,41.71 -45.73,69.17l-122.71 466.55 -64.36 168.49c-1.7,4.45 -3.93,8.68 -6.63,12.6l0 0c-31.03,45.01 9.67,104.61 62.89,92.08l191.95 -45.16c7.83,-1.84 15.82,-2.98 23.85,-3.41l406.48 -21.72c33.04,-1.77 65.57,-8.92 96.3,-21.18l20.35 -8.12c11.21,-4.47 21.79,-10.4 31.46,-17.63l0 0c12.51,-9.35 23.33,-20.77 32.01,-33.75l12.71 -19.01c5.04,-7.54 8.55,-16.01 10.34,-24.9l0 0c3.62,-18.08 -0.1,-36.85 -10.34,-52.18l-0.73 -1.09 0 0c-10.22,-15.29 -28.32,-23.37 -46.53,-20.78l-2.16 0.31c-16.66,2.37 -31.09,12.76 -38.64,27.81l-4.69 9.35 0 0c-3.55,8.86 -16.73,6.32 -16.73,-3.23l0 -2.93c0,-1.43 0.34,-2.85 0.98,-4.14l6.64 -13.23c10.9,-21.74 32.07,-36.48 56.25,-39.16l1.22 -0.14c22.32,-2.47 44.54,5.31 60.44,21.16l11.27 11.25c19.2,19.14 28.24,46.23 24.4,73.07l0 0c-1.49,10.41 -4.88,20.46 -10,29.64l-26.4 47.4c-5.01,8.98 -12.61,16.24 -21.81,20.83l0 0c-36.66,18.28 -37.92,70.13 -2.19,90.17l49.78 27.92 164.64 114.94c1.73,1.2 3.02,2.93 3.69,4.93l0 0c2.74,8.22 -5.73,15.7 -13.54,11.96l-188.25 -90.12 -41.3 -17.15c-39.29,-16.33 -80.1,-28.75 -121.84,-37.07l0 0c-41.71,-8.32 -84.15,-12.52 -126.68,-12.52l-86.62 0 -265.12 23.33c-12.79,1.13 -25.35,4.13 -37.28,8.9l-136.8 54.74c-58.24,23.3 -59.2,105.4 -1.51,130.06l0 0c12.55,5.36 23.27,14.26 30.85,25.6l64.08 95.85c27.43,41.04 48.05,86.23 61.07,133.84l28.08 102.69c18.32,66.97 43.59,131.83 75.41,193.54l20.74 40.22c53.97,104.65 130.55,195.99 224.18,267.4l0 0 0 0c-120.08,-70.76 -216.9,-175.02 -278.59,-300l-148.15 -300.1c-16.56,-33.55 -37.97,-64.49 -63.54,-91.81l-17.31 -18.49c-39.94,-42.68 -91.57,-72.64 -148.44,-86.14l-39.06 -9.28c-32.2,-7.65 -65.96,-5.5 -96.94,6.17l0 0c-131.29,49.47 -145.93,229.35 -24.37,299.39l44.6 25.7c18.08,10.42 34.32,23.73 48.08,39.41l99.5 113.4c36.87,42.03 76.89,81.19 119.7,117.15l94.63 79.46 -107.03 -47.04c-4.55,-1.99 -8.74,-4.7 -12.44,-8.01l0 0c-30.13,-27.05 -78.07,-5.66 -78.07,34.83l0 4.85c0,19.47 -11.54,37.09 -29.39,44.88l-72.99 31.85c-20.14,8.78 -42.95,9.14 -63.35,1l0 0c-31.26,-12.46 -51.77,-42.72 -51.77,-76.38l0 -12.28c0,-15.62 3.65,-31.02 10.65,-44.98l14.45 -28.82 -6.29 37.63c-1.38,8.24 -1.61,16.63 -0.68,24.94l2.37 21.32c2.76,24.79 20.66,45.24 44.86,51.28l0 0c16.92,4.22 34.84,0.82 49.04,-9.3l16.03 -11.42c13.24,-9.43 24.04,-21.87 31.52,-36.31l3.76 -7.26c9.93,-19.17 15.11,-40.44 15.11,-62.03l0 0c0,-27.49 -8.4,-54.33 -24.08,-76.91l-22.69 -32.69c-18.84,-27.14 -42.65,-50.47 -70.16,-68.76l-36.16 -24.04c-64.33,-42.77 -137.87,-69.71 -214.61,-78.61l-107.45 -12.46c-86.94,-10.08 -174.39,13.94 -243.99,67.02l0 0c-22.4,17.08 -42.57,36.89 -60.06,58.98l-49.97 63.12c-32.74,41.35 -62.08,85.27 -87.74,131.34l-41.37 74.27c-113.18,203.16 -190.62,424.25 -228.96,653.62l-6.66 39.86c-18.25,109.22 -27.42,219.77 -27.42,330.52l0 0c0,232.12 40.3,462.48 119.12,680.81l31.45 87.13 115.19 221.93c166.15,320.08 252.88,675.43 252.88,1036.07l0 0c0,112.2 -8.4,224.26 -25.13,335.21l-18.77 124.57c-7.61,50.48 -11.44,101.46 -11.44,152.52l0 90.53c0,49.48 7.94,98.65 23.52,145.62l0 0c20.96,63.21 55.33,121.15 100.74,169.86l41.65 44.68c45.34,48.62 97.01,90.94 153.62,125.81l199.12 122.65 0 0c55.29,33.08 116.22,55.67 179.71,66.63l338.93 58.5 110 20.9c43.66,8.29 86.38,20.98 127.5,37.86l0 0c53.35,21.91 103.6,50.72 149.47,85.7l18.72 14.28c36.2,27.61 70.09,58.12 101.35,91.23l41.48 43.96c30.15,31.95 64.17,60.02 101.26,83.56l0 0c24.07,15.27 49.33,28.58 75.55,39.78l19.17 8.19 40.16 13.35c6.67,2.22 13.53,3.84 20.5,4.83l29.38 4.19c11.98,1.7 24.14,-1.41 33.83,-8.65l0 0c11.54,-8.63 18.34,-22.2 18.34,-36.61l0 -11.13c0,-20.68 -9.41,-40.22 -25.57,-53.12l-11.95 -9.52c-2.83,-2.27 -6.17,-3.81 -9.72,-4.52l-12.75 -2.55c-18.77,-3.74 -20.87,-29.75 -2.95,-36.45l0 0c2.88,-1.08 5.97,-1.44 9.02,-1.06l18.76 2.34c27.64,3.45 52.42,18.73 67.9,41.89l2.5 3.75c14.97,22.4 20.84,49.66 16.4,76.24l-3.9 23.33c-3.75,22.4 -17.37,41.93 -37.1,53.18l0 0c-17.52,9.98 -38.3,12.54 -57.72,7.12l-163.92 -45.77c-9.87,-2.76 -19.34,-6.77 -28.18,-11.95l-284.31 -166.42c-24.5,-14.34 -52.32,12.69 -38.7,37.59l0 0c1.14,2.09 2.01,4.32 2.59,6.63l14.51 57.87c6.37,25.41 6.08,52.03 -0.83,77.3l-1.78 6.51c-8.25,30.18 -26.82,56.52 -52.48,74.44l-10.02 6.99c-21.78,15.2 -48.57,21.43 -74.81,17.41l-19.09 -2.93c-29.55,-4.53 -53.5,-26.35 -60.77,-55.35l-3.24 -12.94c-0.98,-3.89 -0.94,-7.96 0.12,-11.83l0 0c6.33,-23.15 39.3,-22.8 45.13,0.48l0.29 1.17c1.97,7.84 7.81,14.13 15.48,16.69l12.92 4.29c15.56,5.17 32.68,2.12 45.5,-8.1l5.23 -4.17c10.41,-8.3 17.8,-19.8 21.04,-32.72l7.26 -28.97c2.97,-11.86 4.48,-24.04 4.48,-36.26l0 -1.11c0,-30.79 -9.14,-60.89 -26.25,-86.48l0 0c-15.67,-23.44 -37.41,-42.18 -62.9,-54.23l-119.98 -56.68 -154.57 -61.65c-8.45,-3.37 -17.32,-5.59 -26.36,-6.59l-200.02 -22.17c-45.78,-5.07 -69.18,53.35 -32.56,81.28l0 0c7.78,5.93 13.43,14.21 16.13,23.61l79.5 277.51 -106.54 -132.81c-40.3,-50.24 -87.63,-94.39 -140.55,-131.1l0 0c-74.3,-51.55 -158.28,-87.51 -246.87,-105.69l-122.68 -25.19c-18.27,-3.75 -36.88,-5.65 -55.53,-5.65l-72.89 0c-26.42,0 -51.77,10.48 -70.49,29.15l0 0c-18.78,18.73 -29.33,44.16 -29.33,70.68l0 85.64c0,31.88 -4.98,63.57 -14.76,93.92l-60.53 187.79 0 -213.9c0,-29.63 -4.61,-59.08 -13.66,-87.3l0 0c-32.7,-101.91 -119.63,-177.01 -225.22,-194.56l-27.78 -4.62c-33.94,-5.64 -68.54,-5.97 -102.58,-0.97l-233.05 34.17 -103.78 10.35c-41.61,4.15 -81.39,19.21 -115.33,43.65l-29.49 21.24c-43.5,31.33 -69.28,81.67 -69.28,135.28l0 12.04c0,38.93 16.3,76.09 44.94,102.45l56.27 51.8c4.61,4.25 11.25,5.51 17.1,3.24l0 0c18.35,-7.12 31.45,18.15 15.06,29.05l-15.16 10.07c-5.8,3.86 -13.28,4.12 -19.33,0.67l-113.39 -64.62c-34.07,-19.41 -61.16,-49.07 -77.43,-84.75l0 0c-11.07,-24.3 -16.81,-50.7 -16.81,-77.41l0 -1.87c0,-42.84 14.1,-84.49 40.1,-118.54l90.28 -118.16c2.3,-3.02 4.94,-5.77 7.87,-8.19l0 0c41.66,-34.6 7.1,-101.62 -45.25,-87.74l-83.28 22.08c-6.44,1.7 -12.61,4.33 -18.31,7.8l-334.38 203.33 -88.11 65.91c-29.61,22.14 -50.87,53.66 -60.3,89.41l-18.37 69.63c-5.4,20.46 1.79,42.18 18.33,55.38l4.49 3.58c6.55,5.23 14.68,8.07 23.06,8.07l0 0c39.78,0 51.49,54.22 15.26,70.64l-13.84 6.28c-9.23,4.18 -19.7,4.73 -29.32,1.53l-37.28 -12.39c-45.61,-15.16 -80.32,-52.58 -92.01,-99.21l-8.16 -32.57c-9.71,-38.74 -7.71,-79.48 5.76,-117.07l9.09 -25.4c8.02,-22.41 18.77,-43.74 32,-63.52l6.82 -10.21c37.16,-55.59 89.49,-99.35 150.78,-126.1l0 0c26.55,-11.58 51.55,-26.42 74.44,-44.17l84.73 -65.72c70.89,-54.99 147.68,-101.91 228.95,-139.9l145.4 -67.97 -234.22 75.08 -42.44 11.67c-132.92,36.57 -260.74,89.59 -380.51,157.85l-32.65 18.61c-91.9,52.36 -177.27,115.43 -254.32,187.89l-106.96 100.57c-46.18,43.42 -99.78,78.19 -158.26,102.64l-112.5 47.05c-37.8,15.81 -79.85,18.31 -119.26,7.08l-1.7 -0.49c-35.46,-10.1 -66.83,-31.13 -89.64,-60.08l-18.24 -23.15c-24.22,-30.74 -31.79,-71.43 -20.25,-108.83l0 0c9.6,-31.11 31.52,-56.94 60.66,-71.47l61.76 -30.8c15.51,-7.73 34.29,-3.81 45.4,9.49l12.96 15.51c17.8,21.3 -0.48,53.24 -27.86,48.69l0 0c-12.46,-2.07 -24.88,3.91 -31.03,14.95l-10.16 18.23c-12.67,22.74 -8.69,51.14 9.75,69.52l0 0c6.99,6.98 15.65,12.06 25.14,14.76l5.92 1.69c24.1,6.87 50.02,2.33 70.35,-12.32l720.67 -519.06 0 0c77.68,-49.8 162.07,-88.24 250.63,-114.16l476.25 -139.39c104.58,-30.6 198.87,-89.09 272.76,-169.18l0 0c52.48,-56.9 93.48,-123.41 120.73,-195.87l59.12 -157.24 57.12 -243.37c23.19,-98.82 34.9,-199.98 34.9,-301.48l0 0c0,-163.69 -30.45,-325.94 -89.81,-478.49l-121.96 -313.44c-149.47,-384.14 -221.12,-794.16 -210.79,-1206.23l9.44 -376.81 -21.5 -457.49c-2.35,-50.01 -18.23,-98.45 -45.94,-140.15l0 0c-19.63,-29.54 -44.75,-55.03 -74,-75.09l-39.79 -27.28c-32.98,-22.61 -69.27,-39.96 -107.58,-51.42l0 0c-71.46,-21.38 -147.59,-21.58 -219.16,-0.59l-32.54 9.55 0 0c-119.68,54.25 -219.36,144.61 -285.06,258.41l-17.67 30.61c-26.75,46.33 -48.39,95.42 -64.54,146.42l-76.08 240.29 -14.93 69.45c-6.42,29.88 1.28,61.05 20.88,84.5l1.24 1.48c6.31,7.56 13.85,14 22.3,19.05l0 0c18.7,11.19 40.9,15.03 62.28,10.77l46.94 -9.37c2.27,-0.45 4.33,-1.62 5.89,-3.33l0 0c8.91,-9.76 24.23,1.87 17.21,13.07l-16.87 26.91c-1.76,2.81 -4.49,4.89 -7.68,5.85l-50.75 15.18c-18.48,5.53 -37.82,7.55 -57.04,5.95l-3.56 -0.3c-43.25,-3.59 -83.12,-24.8 -110.28,-58.65l0 0c-35.73,-44.55 -44.68,-104.9 -23.4,-157.9l110.09 -274.26c1.87,-4.65 3.06,-9.55 3.54,-14.54l3.79 -39.65c4.14,-43.22 -51.93,-63.66 -76.58,-27.91l0 0 -69.9 109.55c-28.46,44.61 -81.38,67.17 -133.27,56.82l-19.59 -3.91c-37.53,-7.48 -67.2,-36.26 -75.82,-73.54l-2.79 -12.05c-5.13,-22.14 0.43,-45.41 15,-62.84l14.96 -17.91c2.39,-2.86 5.8,-4.69 9.5,-5.1l6.47 -0.72c14.15,-1.56 20.31,17.37 7.94,24.42l0 0c-2.25,1.28 -4.07,3.2 -5.23,5.52l-4.26 8.48c-6.68,13.33 -6.24,29.11 1.17,42.04l4.23 7.37c10.74,18.76 30.7,30.32 52.31,30.32l48.71 0 58.56 -108.45 133.24 -201.32c3.15,-4.77 7.32,-8.77 12.21,-11.72l37.76 -22.76c28.37,-17.11 59.49,17.56 39.42,43.93l0 0 -51.2 63.09c-69.54,85.69 -146.5,165.07 -229.99,237.23l0 0 108.75 -125.13 110.32 -139.36c92.34,-116.65 211.92,-208.82 348.23,-268.43l77.27 -33.78c63.78,-27.89 132.64,-42.29 202.26,-42.29l0 0c54.12,0 107.89,8.7 159.25,25.78l98.12 32.62 170.78 74.05c14.28,6.19 27.21,15.1 38.08,26.24l9.98 10.24c45.98,47.15 123.16,42.2 162.74,-10.42l0 0 0 0c49.36,-65.64 81.13,-143.85 92.02,-225.25l0 0 0 -86.45c0,-25.74 -2.14,-51.45 -6.38,-76.84l0 0c-6.87,-41.12 -19.23,-81.12 -36.74,-118.95l-23.81 -51.45 -20.42 -44.12c-19.69,-42.55 -46.76,-81.28 -79.96,-114.39l0 0 -54.83 -47.39c-46.64,-40.31 -100.75,-71.07 -159.26,-90.51l0 0c-24.53,-8.16 -49.7,-14.28 -75.24,-18.3l-43.22 -6.81c-51.48,-8.1 -103.52,-12.18 -155.63,-12.18l-22.09 0 0 0c-72.14,0 -143.93,10.14 -213.25,30.11l-244.68 70.49c-18.11,5.22 -35.58,12.46 -52.06,21.6l-16.37 9.07c-22.45,12.43 -41.77,29.81 -56.51,50.81l-9.78 13.93c-17.02,24.24 -24.75,53.79 -21.8,83.26l0.22 2.14c2.32,23.2 11.56,45.17 26.52,63.06l7.12 8.53c7.72,9.23 17.6,16.4 28.78,20.86l9.83 3.92c9.66,3.85 20.38,4.14 30.24,0.81l12.57 -4.25c3.58,-1.21 6.49,-3.87 8.03,-7.33l6.84 -15.39c4.37,-9.84 19.07,-6.72 19.07,4.04l0 0c0,2 -0.6,3.95 -1.72,5.6l-10.11 14.89c-10.53,15.51 -26.96,26.03 -45.45,29.1l-3.96 0.66c-11.37,1.89 -23.02,1.23 -34.11,-1.93l-6.1 -1.74c-23.06,-6.57 -43.22,-20.76 -57.18,-40.25l-2.51 -3.5c-11.64,-16.26 -18.98,-35.21 -21.33,-55.08l-0.77 -6.57c-7.37,-62.47 -54.42,-112.95 -116.22,-124.69l-139.13 -26.43c-69.67,-13.23 -131.78,-52.26 -173.92,-109.3l-20.01 -27.08c-20.56,-27.82 -32.27,-61.19 -33.6,-95.76l-1.52 -39.56c-1,-25.9 9.53,-50.91 28.75,-68.29l6.82 -6.17c11.71,-10.59 26.93,-16.46 42.72,-16.46l1.79 0c20.14,0 38.96,10.06 50.15,26.8l12.5 18.7c1.93,2.89 2.49,6.5 1.53,9.84l0 0c-3.5,12.21 -21.22,11.18 -23.02,-1.39l0 0c-0.36,-2.53 -1.54,-4.87 -3.34,-6.67l-6.32 -6.3c-9.87,-9.85 -24.3,-13.58 -37.72,-9.76l-5.81 1.66c-18.81,5.35 -32.6,21.43 -35.03,40.84l-3.02 24.11c-0.88,7.05 -0.88,14.19 0,21.25l1.11 8.83c3.86,30.82 16.8,59.8 37.17,83.25l13.23 15.22c40.95,47.12 99.79,74.9 162.2,76.59l190.8 5.14c13.64,0.37 27.15,-2.66 39.32,-8.81l0 0c57.58,-29.1 60.8,-110.12 5.72,-143.69l-12.83 -7.82c-7.58,-4.62 -14.44,-10.33 -20.36,-16.94l-107.58 -120.16c-56.01,-62.56 -105.2,-130.91 -146.74,-203.9l-67.56 -118.71c-30.16,-52.99 -50.28,-111.09 -59.35,-171.38l-5.87 -39.04c-3.65,-24.25 -3.55,-48.92 0.29,-73.15l9.8 -61.92c5.96,-37.67 29.76,-70.13 63.89,-87.15l14.11 -7.03c29.97,-14.95 65.7,-12.32 93.16,6.85l10.95 7.65c17.65,12.31 28.16,32.74 28.16,54.26l0 0c0,24.6 -13.92,47.41 -35.93,58.39l-25.43 12.68c-3.48,1.73 -7.59,1.62 -10.97,-0.31l-4.64 -2.64c-10.19,-5.81 -4.85,-21.43 6.77,-19.77l0 0c2.13,0.3 4.31,-0.05 6.24,-1.02l8.24 -4.1c13.64,-6.8 22.26,-20.73 22.26,-35.97l0 -3.28c0,-13.84 -6.3,-26.93 -17.12,-35.57l-7.16 -5.7c-11.36,-9.07 -25.46,-14 -40,-14l0 0c-12.63,0 -24.99,3.73 -35.51,10.72l-4.47 2.98c-18.87,12.54 -31.71,32.35 -35.44,54.71l-12.63 75.55c-4.38,26.22 -4.69,52.96 -0.92,79.28l2.67 18.68 0 0c11.12,55.41 28.99,109.24 53.24,160.28l4.89 10.29c22.54,47.45 49.8,92.52 81.38,134.5l26.16 34.79c34.51,45.89 72.23,89.27 112.88,129.81l159.95 159.51c14.3,14.26 30.8,26.12 48.88,35.13l0 0c26.06,13 54.79,19.77 83.92,19.77l18.21 0c19.62,0 39.17,-2.18 58.31,-6.49l100.87 -22.71c86.17,-19.41 174.23,-29.2 262.56,-29.2l143.15 0 175.67 25.03 89.97 17.94c51.13,10.2 100,29.56 144.25,57.14l0 0 100.38 66.74 36.85 30.62c8.62,7.16 19.49,11.09 30.7,11.09l0 0c23.71,0 43.87,-17.29 47.48,-40.72l9.08 -58.83c0.91,-5.93 1.37,-11.91 1.37,-17.91l0 -117.77c0,-59.48 -11.92,-118.35 -35.05,-173.15l0 0c-21.07,-49.9 -51.07,-95.54 -88.52,-134.66l-38.07 -39.78c-53.64,-56.03 -115.7,-103.34 -183.95,-140.21l-22.52 -12.16c-50.05,-27.04 -102.53,-49.31 -156.76,-66.52l-42.04 -13.34c-40.26,-12.77 -79.46,-28.65 -117.26,-47.5l0 0c-40.15,-20.02 -78.58,-43.32 -114.9,-69.66l-129.46 -93.9 -267.69 -250.27 -74.84 -68.42c-16.48,-15.07 -37.81,-23.76 -60.13,-24.5l-186.55 -6.2c-11.31,-0.37 -16.7,-14.07 -8.69,-22.05l0 0c2.53,-2.53 6,-3.89 9.58,-3.77l182.87 6.52c29.83,1.06 58.69,10.89 82.96,28.27l241.06 172.6c18.03,12.91 42.75,-2.1 39.6,-24.05l0 0 -14.33 -92.93c-1.6,-10.32 -4.36,-20.42 -8.25,-30.11l-17.88 -44.58c-6.07,-15.14 -19.37,-26.18 -35.36,-29.37l-3.14 -0.63c-8.46,-1.69 -17.25,-0.51 -24.97,3.34l-6.8 3.39c-9.04,4.51 -14.75,13.73 -14.75,23.83l0 3.83c0,3.07 0.97,6.06 2.75,8.56l3.71 5.18c8.31,11.6 -5,26.37 -17.4,19.3l0 0c-3.64,-2.07 -6.09,-5.74 -6.61,-9.9l-2.76 -21.99c-2.89,-23.09 8.4,-45.65 28.62,-57.18l2.54 -1.44c14.46,-8.25 31.64,-10.32 47.65,-5.76l7.65 2.18c16.43,4.68 30,16.29 37.17,31.79l15.28 33.01c10.97,23.72 42.91,27.94 59.66,7.88l0 0c3.79,-4.54 8.65,-8.06 14.14,-10.25l15.4 -6.14c11.93,-4.76 24.66,-7.2 37.51,-7.2l11.32 0c7.31,0 14.54,1.39 21.33,4.09l0 0c19.47,7.77 33.17,25.5 35.78,46.3l1.37 10.93c1.81,14.41 -0.7,29.03 -7.21,42.01l-12.84 25.6c-1.44,2.89 -4.07,4.99 -7.2,5.77l-6.79 1.69c-10.72,2.68 -17.02,-11.62 -7.83,-17.73l0 0c1.82,-1.21 3.19,-3 3.89,-5.07l4.6 -13.78c1.78,-5.33 2.69,-10.91 2.69,-16.53l0 -19.97c0,-12.9 -8.26,-24.35 -20.5,-28.42l0 0c-3.04,-1.01 -6.23,-1.53 -9.44,-1.53l-3.35 0c-15.91,0 -30.89,7.48 -40.45,20.2l-19.31 25.67c-10.33,13.74 -17.45,29.63 -20.83,46.49l-3.23 16.1 -4.45 26.6c-2.58,15.44 -1.68,31.26 2.63,46.31l0 0c6.59,23 20.83,43.07 40.36,56.89l161.07 114c44.85,31.74 96.04,53.41 150.05,63.51l40.91 7.65c7.27,1.36 14.69,1.71 22.06,1.04l41.05 -3.72c21.96,-1.99 38.07,-21.51 35.87,-43.44l-2.2 -21.93c-1.16,-11.6 7.95,-21.67 19.61,-21.67l0 0c7.2,0 13.83,3.93 17.28,10.25l27.64 50.53c11.05,20.21 27.83,36.69 48.22,47.4l120.45 63.22c4.8,2.52 9.38,5.45 13.68,8.77l0 0c65.98,50.84 160.57,-3.02 150.52,-85.71l-6.41 -52.75 -101.07 -467.96c-10.54,-48.83 -32.49,-94.48 -64.05,-133.22l-26.85 -32.96c-22.1,-27.11 -51.74,-47.07 -85.18,-57.33l-8.3 -2.55c-31.87,-9.78 -66.09,-8.75 -97.32,2.93l-46.7 17.47c-23.96,8.96 -40.97,30.48 -44.15,55.86l-1.82 14.51c-0.89,7.06 0.8,14.2 4.75,20.11l0 0c6.46,9.66 17.97,14.64 29.43,12.73l29.54 -4.91c1.21,-0.2 2.37,-0.62 3.41,-1.25l0 0c9.08,-5.43 19.1,5.45 12.94,14.05l-11.69 16.32c-1.83,2.55 -4.48,4.42 -7.51,5.28l-27.29 7.78c-16.68,4.75 -34.64,1.15 -48.2,-9.67l0 0c-12.78,-10.19 -20.21,-25.64 -20.21,-41.98l0 -23.4c0,-22.18 7.2,-43.76 20.54,-61.48l5.4 -7.19c15.79,-20.99 37.6,-36.68 62.52,-44.96l68.28 -22.7c12.28,-4.08 25.56,-4.08 37.85,0l18.25 6.07c42.96,14.28 82.22,-29.67 63.21,-70.76l0 0 -100.39 -208.56z"/>
  <path class="fil2" d="M-107109.89 -6499.14c102.09,0 153.14,34.87 153.14,104.62 0,69.74 -52.97,104.62 -158.92,104.62 -277.4,0 -539.38,43.59 -785.95,130.77 -244.65,87.19 -447.88,198.59 -609.69,334.21 -161.81,135.62 -288.95,284.8 -381.42,447.54 -92.46,162.75 -138.69,322.58 -138.69,479.51 0,251.87 104.98,460.14 314.95,624.82 209.98,162.75 523.01,244.12 939.1,244.12 475.8,0 832.18,-114.31 1069.12,-342.93 123.28,-120.12 184.93,-275.11 184.93,-464.98 0,-191.8 -62.61,-342.92 -187.82,-453.35 -125.21,-110.44 -286.06,-165.65 -482.55,-165.65 -194.56,0 -388.16,38.75 -580.79,116.24 -190.71,77.5 -341.93,181.15 -453.66,310.96l-158.92 -142.4c111.73,-143.37 277.39,-258.65 497,-345.83 219.6,-87.19 419.94,-130.78 601.02,-130.78 181.07,0 326.51,16.47 436.31,49.41 111.73,32.93 212.86,81.37 303.4,145.3 194.56,139.5 297.62,354.55 309.18,645.16 -7.71,174.37 -59.72,331.3 -156.03,470.8 -96.32,139.49 -223.46,252.83 -381.42,340.01 -319.77,178.25 -696.37,267.37 -1129.8,267.37 -464.25,0 -873.6,-108.5 -1228.05,-325.49 -169.51,-104.62 -305.32,-240.24 -407.42,-406.86 -102.09,-168.55 -153.14,-355.51 -153.14,-560.88 0,-728.47 633.77,-1196.36 1901.3,-1403.66 -213.82,-73.62 -367.93,-171.46 -462.32,-293.52 -94.39,-122.06 -141.59,-248.96 -141.59,-380.7 0,-236.37 129.07,-443.67 387.2,-621.92 260.05,-180.18 586.57,-270.27 979.54,-270.27 360.23,0 660.74,96.88 901.53,290.62 179.15,143.37 272.58,332.27 280.28,566.69 0,108.5 -31.78,190.84 -95.35,247.02 -63.57,54.25 -139.66,81.38 -228.27,81.38 -88.61,0 -164.7,-24.22 -228.27,-72.66 -61.65,-50.37 -92.47,-108.49 -92.47,-174.36 0,-65.88 11.56,-117.22 34.68,-154.03 23.11,-38.75 48.16,-66.84 75.12,-84.28 28.9,-19.37 61.65,-33.9 98.25,-43.59 53.94,-13.56 97.28,-20.34 130.03,-20.34 -61.65,-127.87 -171.45,-229.59 -329.41,-305.15 -156.03,-77.49 -338.07,-116.24 -546.12,-116.24 -208.04,0 -397.79,60.06 -569.23,180.18 -169.52,118.18 -254.28,279.96 -254.28,485.32 0,220.87 76.09,394.27 228.27,520.2 82.84,69.75 182.04,104.62 297.62,104.62l219.61 -11.62z"/>
  <path class="fil2" d="M-104214.6 -3802.25l-427.65 0 54.9 -191.81c19.27,-75.56 53.94,-185.99 104.03,-331.3 111.72,-315.8 167.59,-561.85 167.59,-738.16 0,-75.55 -31.79,-113.33 -95.36,-113.33 -78.98,0 -172.4,47.46 -280.28,142.4 -105.95,92.99 -208.04,207.3 -306.29,342.92 -163.74,226.68 -325.55,476.61 -485.44,749.78l-80.9 139.5 -407.43 0c0,0 29.86,-91.06 89.58,-273.18 167.59,-503.73 251.39,-802.09 251.39,-895.09 0,-94.93 -15.41,-142.4 -46.23,-142.4 -55.87,0 -122.33,66.84 -199.38,200.52 -17.34,31 -31.79,56.19 -43.34,75.56 -11.56,17.44 -25.05,39.72 -40.46,66.84 -13.48,25.19 -22.15,40.69 -26,46.5l-193.6 -113.34c150.25,-246.05 287.99,-427.2 413.2,-543.44 125.21,-118.19 253.31,-177.28 384.31,-177.28 59.71,0 110.76,25.19 153.14,75.56 44.31,50.37 66.46,110.44 66.46,180.18 0,67.81 -3.85,128.84 -11.56,183.09 -7.7,52.31 -16.37,100.74 -26,145.3 -9.64,44.57 -23.12,97.84 -40.46,159.84 -17.33,62 -31.78,109.47 -43.34,142.4 -9.63,32.94 -23.12,77.5 -40.45,133.68 -17.34,56.19 -27.94,89.13 -31.79,98.81 38.53,-67.81 101.13,-169.52 187.82,-305.14 86.69,-135.62 143.51,-220.87 170.48,-255.74 28.9,-36.81 66.46,-83.31 112.69,-139.49 46.23,-58.13 86.69,-103.66 121.36,-136.59 36.6,-32.94 79.95,-69.75 130.03,-110.44 50.09,-40.68 97.28,-71.68 141.59,-92.99 107.87,-52.31 216.71,-78.47 326.51,-78.47 111.73,0 196.49,31.97 254.28,95.9 57.79,62 86.68,135.62 86.68,220.87 0,83.31 -13.48,170.49 -40.45,261.55 -25.04,91.06 -60.68,197.62 -106.91,319.68 -46.23,120.12 -76.09,201.49 -89.57,244.11 184.92,-302.24 326.51,-515.35 424.75,-639.35 267.77,-335.17 532.64,-502.76 794.62,-502.76 129.07,0 221.53,31 277.39,93 55.87,62 83.8,146.27 83.8,252.83 0,106.56 -45.27,283.83 -135.81,531.82 -90.54,246.06 -135.8,397.18 -135.8,453.36 0,56.19 17.33,84.28 52.01,84.28 77.05,0 199.37,-123.03 366.97,-369.08l124.24 116.24c-113.65,203.43 -238.86,361.33 -375.63,473.7 -136.77,110.44 -254.28,165.65 -352.52,165.65 -96.32,0 -163.74,-31.96 -202.27,-95.9 -38.53,-63.93 -57.79,-139.49 -57.79,-226.68 0,-89.12 38.53,-245.08 115.58,-467.88 77.05,-224.75 115.58,-397.18 115.58,-517.3 0,-75.55 -33.71,-113.33 -101.13,-113.33 -192.64,0 -470.99,283.83 -835.07,851.49 -148.33,230.56 -252.35,404.92 -312.07,523.11z"/>
  <path class="fil2" d="M-100065.26 -4360.23c-86.69,174.37 -209.98,318.7 -369.86,433.01 -157.96,114.31 -340,171.46 -546.12,171.46 -206.12,0 -370.82,-79.43 -494.11,-238.3 -90.54,358.42 -167.59,614.16 -231.16,767.22 -200.34,474.67 -474.84,712.97 -823.51,714.91 -84.76,0 -156.04,-29.06 -213.83,-87.19 -57.79,-58.12 -86.68,-125.93 -86.68,-203.43 0,-75.56 19.26,-135.62 57.79,-180.18 38.53,-42.62 89.57,-63.93 153.14,-63.93 63.57,0 116.55,14.53 158.93,43.59 42.38,31 63.57,77.5 63.57,139.5 0,63.93 -33.71,131.74 -101.14,203.42l17.34 23.25c119.43,0 228.27,-175.33 326.52,-526.01 38.52,-141.43 66.45,-251.86 83.79,-331.29 17.34,-79.44 27.93,-126.91 31.79,-142.41l303.4 -1200.23c-94.4,62 -214.79,182.12 -361.19,360.36l-112.7 -130.77c84.76,-118.19 184.93,-233.46 300.51,-345.83 115.59,-112.37 188.79,-184.06 219.61,-215.06 150.25,-447.54 295.69,-782.71 436.31,-1005.52 146.41,-224.74 308.22,-402.01 485.44,-531.82l78.02 69.75c-121.36,145.3 -224.42,330.33 -309.18,555.07 -84.76,224.74 -139.66,440.76 -164.7,648.07 206.12,-83.31 401.64,-124.97 586.57,-124.97 186.86,0 340.96,59.09 462.32,177.28 121.36,118.18 182.04,274.14 182.04,467.88 0,193.75 -44.3,377.8 -132.91,552.17zm-1126.92 -810.81l-219.6 976.46c34.68,75.56 92.47,132.71 173.37,171.46 80.91,38.75 174.34,58.12 280.29,58.12 105.94,0 203.22,-45.53 291.84,-136.59 165.66,-170.49 248.5,-392.32 248.5,-665.5 0,-244.11 -65.5,-408.8 -196.49,-494.04 -52.01,-34.88 -121.36,-52.31 -208.05,-52.31 -84.76,0 -208.04,47.46 -369.86,142.4z"/>
  <path class="fil2" d="M-98100.39 -5493.62l450.76 0 -228.27 868.93c-36.6,122.06 -54.9,233.46 -54.9,334.21 0,98.8 17.34,148.21 52.01,148.21 34.67,0 81.87,-30.03 141.59,-90.09 61.64,-62 113.65,-124 156.03,-185.99l66.46 -93 124.25 116.24c-63.57,124 -144.48,237.34 -242.72,340.02 -190.71,199.56 -356.37,299.33 -497,299.33 -165.66,0 -248.5,-128.83 -248.5,-386.51 0,-42.63 1.93,-74.59 5.78,-95.9 -28.89,98.8 -83.79,185.99 -164.7,261.55 -154.11,147.24 -328.44,220.86 -523,220.86 -192.64,0 -347.71,-65.87 -465.21,-197.61 -115.59,-133.69 -173.38,-300.3 -173.38,-499.86 0,-309.99 100.17,-571.54 300.51,-784.65 200.34,-213.12 435.36,-319.68 705.05,-319.68 134.84,0 246.57,37.78 335.18,113.34 88.61,73.62 146.4,170.49 173.37,290.61l86.69 -340.01zm-482.55 185.99c-111.73,0 -216.72,47.47 -314.96,142.4 -96.32,93 -170.48,206.34 -222.49,340.02 -52.01,131.74 -78.02,260.58 -78.02,386.51 0,125.93 26.97,227.65 80.91,305.15 55.86,77.49 140.62,116.24 254.27,116.24 115.59,0 219.61,-52.31 312.07,-156.93 175.3,-201.49 262.95,-440.76 262.95,-717.81 0,-277.05 -98.25,-415.58 -294.73,-415.58z"/>
  <path class="fil2" d="M-96843.45 -5493.62c198.41,-619.98 400.68,-1139.21 606.79,-1557.69l358.31 29.06c-21.19,62 -73.21,211.18 -156.04,447.55 -179.15,521.16 -294.73,881.52 -346.74,1081.08l453.65 0 -46.23 191.8 -468.1 0c-177.23,550.23 -265.84,885.4 -265.84,1005.52 0,118.19 11.56,177.28 34.68,177.28 25.04,0 47.19,-4.85 66.46,-14.53 52.01,-29.06 163.74,-170.5 335.18,-424.3l118.47 107.53c-129.07,236.36 -261.98,411.7 -398.75,526.01 -136.77,112.37 -249.46,168.55 -338.08,168.55 -88.61,0 -156.03,-31 -202.26,-92.99 -44.31,-62 -66.46,-141.43 -66.46,-238.31 0,-246.05 85.72,-650.97 257.17,-1214.76l-303.4 0 46.23 -191.8 314.96 0z"/>
  <path class="fil2" d="M-94690.76 -4069.62c0,-100.74 40.45,-262.52 121.35,-485.32 80.91,-222.81 121.36,-381.67 121.36,-476.61 0,-96.87 -33.71,-145.3 -101.13,-145.3 -65.49,0 -145.44,47.46 -239.83,142.4 -94.39,92.99 -184.93,207.3 -271.61,342.92 -142.55,218.93 -286.07,468.86 -430.54,749.78l-75.13 139.5 -416.09 0c94.39,-701.35 184.93,-1220.58 271.62,-1557.69 86.68,-337.11 169.51,-624.82 248.49,-863.12 78.98,-238.3 163.74,-449.48 254.28,-633.54 204.2,-422.36 439.21,-735.25 705.04,-938.68l219.61 101.72c-206.12,207.3 -395.87,572.5 -569.24,1095.61 -171.44,521.16 -362.15,1240.92 -572.12,2159.25 11.56,-19.37 34.67,-60.06 69.35,-122.05 36.6,-63.94 64.53,-111.41 83.79,-142.41 19.27,-32.93 48.16,-81.37 86.69,-145.3 40.45,-63.94 74.16,-114.31 101.13,-151.12 26.97,-38.75 61.64,-86.22 104.02,-142.4 44.31,-56.19 82.84,-100.75 115.59,-133.68 34.67,-34.88 75.12,-71.69 121.36,-110.44 46.23,-40.68 90.53,-72.65 132.91,-95.9 98.24,-50.37 203.23,-75.56 314.96,-75.56 111.73,0 195.52,31 251.39,93 57.79,62 86.68,145.31 86.68,249.93 0,104.62 -48.16,280.92 -144.47,528.91 -96.32,246.05 -144.48,398.14 -144.48,456.26 0,58.13 15.41,87.19 46.23,87.19 80.91,0 203.23,-123.03 366.97,-369.08l124.25 116.24c-123.29,213.12 -252.35,372.96 -387.19,479.52 -132.92,106.55 -242.72,159.83 -329.41,159.83 -84.76,0 -150.25,-27.12 -196.49,-81.37 -46.23,-54.25 -69.34,-131.74 -69.34,-232.49z"/>
  <path class="fil2" d="M-93040.85 -3755.76c-80.91,0 -144.48,-25.18 -190.71,-75.56 -46.23,-50.37 -69.35,-119.15 -69.35,-206.33 0,-89.12 22.16,-209.24 66.46,-360.36 46.23,-153.06 91.5,-291.58 135.81,-415.58 46.23,-123.99 69.35,-206.33 69.35,-247.02 0,-42.62 -13.49,-63.93 -40.46,-63.93 -67.42,0 -176.26,133.68 -326.51,401.04l-193.6 -113.34c283.17,-480.48 543.23,-720.72 780.17,-720.72 161.81,0 242.72,102.69 242.72,308.05 0,60.06 -19.26,155.96 -57.79,287.71l-208.05 598.66c-21.18,56.19 -31.78,107.53 -31.78,154.03 0,44.56 17.34,66.84 52.01,66.84 65.5,0 185.89,-122.06 361.19,-366.17l121.36 113.33c-104.02,193.75 -228.27,348.74 -372.75,464.99 -142.55,116.24 -255.24,174.36 -338.07,174.36zm823.51 -2659.11c0,77.5 -26.01,148.22 -78.02,212.15 -52.01,63.94 -122.32,95.9 -210.93,95.9 -88.61,0 -155.07,-26.15 -199.38,-78.46 -44.3,-54.25 -66.46,-122.06 -66.46,-203.43 0,-81.37 26.97,-153.06 80.91,-215.05 55.86,-63.94 127.14,-95.91 213.82,-95.91 86.69,0 151.22,28.1 193.6,84.28 44.31,54.25 66.46,121.09 66.46,200.52z"/>
  <path class="fil2" d="M-90558.76 -5493.62l450.77 0 -228.28 868.93c-36.6,122.06 -54.9,233.46 -54.9,334.21 0,98.8 17.34,148.21 52.02,148.21 34.67,0 81.87,-30.03 141.58,-90.09 61.65,-62 113.66,-124 156.04,-185.99l66.46 -93 124.24 116.24c-63.56,124 -144.47,237.34 -242.71,340.02 -190.71,199.56 -356.38,299.33 -497,299.33 -165.67,0 -248.5,-128.83 -248.5,-386.51 0,-42.63 1.93,-74.59 5.78,-95.9 -28.9,98.8 -83.8,185.99 -164.7,261.55 -154.11,147.24 -328.44,220.86 -523.01,220.86 -192.63,0 -347.7,-65.87 -465.21,-197.61 -115.58,-133.69 -173.37,-300.3 -173.37,-499.86 0,-309.99 100.17,-571.54 300.51,-784.65 200.34,-213.12 435.36,-319.68 705.04,-319.68 134.85,0 246.57,37.78 335.19,113.34 88.61,73.62 146.4,170.49 173.37,290.61l86.68 -340.01zm-482.55 185.99c-111.72,0 -216.71,47.47 -314.95,142.4 -96.32,93 -170.48,206.34 -222.49,340.02 -52.02,131.74 -78.02,260.58 -78.02,386.51 0,125.93 26.97,227.65 80.9,305.15 55.87,77.49 140.63,116.24 254.28,116.24 115.58,0 219.6,-52.31 312.07,-156.93 175.3,-201.49 262.95,-440.76 262.95,-717.81 0,-277.05 -98.25,-415.58 -294.74,-415.58z"/>
  <path class="fil2" d="M-87334.06 -7992.9c687.71,0 1031.56,406.86 1031.56,1220.58 0,618.04 -203.23,1445.32 -609.69,2481.84 560.57,-302.24 1001.7,-652.92 1323.4,-1052.02 298.59,-371.99 539.38,-812.75 722.38,-1322.29 -175.3,-87.19 -321.7,-199.56 -439.21,-337.11 -117.51,-139.5 -176.26,-288.68 -176.26,-447.55 0,-158.87 48.16,-288.67 144.48,-389.42 96.31,-102.68 217.68,-154.03 364.08,-154.03 146.4,0 261.02,53.28 343.85,159.84 82.83,104.62 124.25,250.9 124.25,438.83 0,187.93 -35.64,406.86 -106.91,656.78 138.69,71.69 285.09,124 439.2,156.93l-52.01 136.59c-221.53,-56.18 -366,-97.84 -433.43,-124.96 -190.7,579.29 -516.25,1105.3 -976.65,1578.03 -458.47,470.79 -1046.01,866.99 -1762.61,1188.61l-236.94 0c123.29,-242.18 254.28,-593.82 392.98,-1054.93 269.69,-887.34 404.53,-1579 404.53,-2074.98 0,-590.91 -177.23,-886.37 -531.67,-886.37 -157.96,0 -300.51,40.69 -427.65,122.06 -127.14,79.43 -230.2,181.15 -309.18,305.14 -78.98,124 -144.47,266.4 -196.49,427.2 -96.31,286.74 -144.47,585.11 -144.47,895.09 0,263.49 28.89,492.11 86.68,685.85 104.03,348.74 259.1,591.88 465.22,729.44l-135.81 113.34c-204.19,-172.43 -354.45,-400.08 -450.76,-682.94 -94.4,-282.87 -141.59,-542.48 -141.59,-778.85 0,-236.36 14.45,-438.82 43.34,-607.38 28.9,-168.55 76.09,-336.14 141.59,-502.76 67.42,-168.55 149.29,-316.77 245.61,-444.64 96.31,-129.8 218.64,-234.42 366.97,-313.86 148.32,-81.37 312.06,-122.06 491.21,-122.06zm2427.2 278.99c-69.35,0 -129.07,27.13 -179.15,81.37 -50.09,52.32 -75.13,124.97 -75.13,217.96 0,91.06 32.75,188.9 98.24,293.52 67.43,102.69 153.15,192.78 257.17,270.27 63.57,-230.55 95.35,-405.89 95.35,-526.01 0,-224.74 -65.49,-337.11 -196.48,-337.11z"/>
  <path class="fil2" d="M-84557.23 -3755.76c-80.91,0 -144.48,-25.18 -190.71,-75.56 -46.23,-50.37 -69.35,-119.15 -69.35,-206.33 0,-89.12 22.15,-209.24 66.46,-360.36 46.23,-153.06 91.5,-291.58 135.81,-415.58 46.23,-123.99 69.35,-206.33 69.35,-247.02 0,-42.62 -13.49,-63.93 -40.46,-63.93 -67.42,0 -176.26,133.68 -326.51,401.04l-193.6 -113.34c283.17,-480.48 543.23,-720.72 780.17,-720.72 161.82,0 242.72,102.69 242.72,308.05 0,60.06 -19.27,155.96 -57.79,287.71l-208.05 598.66c-21.19,56.19 -31.78,107.53 -31.78,154.03 0,44.56 17.34,66.84 52.01,66.84 65.5,0 185.89,-122.06 361.19,-366.17l121.36 113.33c-104.02,193.75 -228.27,348.74 -372.75,464.99 -142.55,116.24 -255.24,174.36 -338.07,174.36zm823.51 -2659.11c0,77.5 -26,148.22 -78.02,212.15 -52.01,63.94 -122.32,95.9 -210.93,95.9 -88.61,0 -155.07,-26.15 -199.38,-78.46 -44.3,-54.25 -66.46,-122.06 -66.46,-203.43 0,-81.37 26.97,-153.06 80.91,-215.05 55.86,-63.94 127.14,-95.91 213.82,-95.91 86.69,0 151.22,28.1 193.6,84.28 44.31,54.25 66.46,121.09 66.46,200.52z"/>
  <path class="fil2" d="M-82598.14 -7667.41l468.1 0c-82.83,143.37 -209.97,462.08 -381.42,956.12 -171.44,492.1 -328.44,988.08 -470.99,1487.94 -140.62,497.91 -210.93,803.06 -210.93,915.43 0,110.43 13.48,165.65 40.45,165.65 80.91,0 207.08,-123.03 378.53,-369.08l121.36 116.24c-84.76,147.25 -176.26,271.24 -274.5,371.99 -173.37,178.24 -314,267.36 -421.87,267.36 -196.49,0 -294.73,-119.15 -294.73,-357.45 0,-354.55 116.54,-913.49 349.63,-1676.84 235.01,-763.34 467.14,-1389.13 696.37,-1877.36z"/>
  <path class="fil2" d="M-81425 -7667.41l468.11 0c-82.84,143.37 -209.97,462.08 -381.42,956.12 -171.45,492.1 -328.44,988.08 -470.99,1487.94 -140.62,497.91 -210.94,803.06 -210.94,915.43 0,110.43 13.49,165.65 40.46,165.65 80.9,0 207.08,-123.03 378.52,-369.08l121.36 116.24c-84.76,147.25 -176.26,271.24 -274.5,371.99 -173.37,178.24 -313.99,267.36 -421.87,267.36 -196.49,0 -294.73,-119.15 -294.73,-357.45 0,-354.55 116.54,-913.49 349.63,-1676.84 235.01,-763.34 467.14,-1389.13 696.37,-1877.36z"/>
  <path class="fil2" d="M-79728.85 -5493.62l450.76 0 -228.27 868.93c-36.6,122.06 -54.9,233.46 -54.9,334.21 0,98.8 17.34,148.21 52.01,148.21 34.68,0 81.87,-30.03 141.59,-90.09 61.64,-62 113.65,-124 156.03,-185.99l66.46 -93 124.25 116.24c-63.57,124 -144.48,237.34 -242.72,340.02 -190.71,199.56 -356.37,299.33 -497,299.33 -165.66,0 -248.49,-128.83 -248.49,-386.51 0,-42.63 1.92,-74.59 5.77,-95.9 -28.89,98.8 -83.79,185.99 -164.7,261.55 -154.11,147.24 -328.44,220.86 -523,220.86 -192.64,0 -347.7,-65.87 -465.21,-197.61 -115.58,-133.69 -173.37,-300.3 -173.37,-499.86 0,-309.99 100.17,-571.54 300.51,-784.65 200.34,-213.12 435.35,-319.68 705.04,-319.68 134.84,0 246.57,37.78 335.18,113.34 88.62,73.62 146.4,170.49 173.37,290.61l86.69 -340.01zm-482.55 185.99c-111.73,0 -216.71,47.47 -314.96,142.4 -96.31,93 -170.48,206.34 -222.49,340.02 -52.01,131.74 -78.02,260.58 -78.02,386.51 0,125.93 26.97,227.65 80.91,305.15 55.86,77.49 140.62,116.24 254.28,116.24 115.58,0 219.6,-52.31 312.07,-156.93 175.29,-201.49 262.94,-440.76 262.94,-717.81 0,-277.05 -98.24,-415.58 -294.73,-415.58z"/>
  <path class="fil2" d="M-78853.33 -3375.05c-80.91,-67.81 -121.36,-130.78 -121.36,-188.9 0,-58.12 23.12,-101.72 69.35,-130.78l349.63 -345.83c-204.19,-172.43 -306.28,-378.76 -306.28,-619 0,-242.18 104.98,-455.3 314.95,-639.35 211.9,-184.06 449.8,-276.08 713.71,-276.08 59.72,0 104.99,1.93 135.81,5.81 15.41,-147.25 86.68,-285.77 213.82,-415.58 129.07,-131.74 289.92,-197.62 482.55,-197.62 194.56,0 291.84,87.19 291.84,261.56 0,75.56 -22.15,135.62 -66.46,180.18 -42.37,42.62 -93.42,63.93 -153.14,63.93 -59.72,0 -112.69,-18.4 -158.92,-55.22 -46.24,-36.81 -78.02,-88.15 -95.36,-154.02 -115.58,31 -209,81.37 -280.28,151.12 -69.35,67.81 -104.02,128.84 -104.02,183.08 154.1,56.19 281.24,153.06 381.41,290.62 100.17,135.62 150.26,277.05 150.26,424.29 0,253.8 -101.14,471.76 -303.4,653.88 -202.27,182.12 -430.54,273.18 -684.82,273.18 -167.59,0 -305.32,-21.31 -413.2,-63.94 -113.65,94.94 -170.48,159.84 -170.48,194.71 0,54.25 47.2,84.28 141.59,90.09l572.12 23.25c194.57,7.75 346.75,39.72 456.55,95.91 109.8,58.12 164.7,139.49 164.7,244.11 0,104.62 -29.86,196.65 -89.58,276.08 -59.71,79.44 -141.58,141.43 -245.61,186 -198.41,85.24 -448.83,127.87 -751.27,127.87 -150.25,0 -288.95,-16.47 -416.09,-49.41 -248.5,-63.93 -372.75,-162.74 -372.75,-296.42 0,-106.56 78.02,-195.68 234.06,-267.37 23.11,-11.62 43.33,-20.34 60.67,-26.15zm725.27 -1877.36c-82.83,83.31 -142.55,180.18 -179.15,290.61 -34.67,108.49 -52.01,206.33 -52.01,293.52 0,85.24 4.81,157.9 14.45,217.96 9.63,58.12 26,117.21 49.12,177.27 50.09,127.87 138.69,191.81 265.83,191.81 127.14,0 230.2,-44.56 309.18,-133.69 138.7,-153.05 208.05,-372.95 208.05,-659.69 0,-110.43 -28.9,-221.83 -86.69,-334.2 -57.79,-114.31 -139.66,-171.46 -245.61,-171.46 -105.95,0 -200.34,42.62 -283.17,127.87zm-184.93 2348.15c429.58,0 644.37,-75.56 644.37,-226.68 0,-129.81 -331.34,-194.71 -994,-194.71 -48.16,0 -89.57,27.12 -124.25,81.37 -34.67,54.25 -52.01,104.62 -52.01,151.12 0,73.62 45.27,123.03 135.81,148.21 90.53,27.13 220.57,40.69 390.08,40.69z"/>
  <path class="fil2" d="M-76270.1 -4374.76c11.56,222.8 160.85,334.2 447.87,334.2 105.95,0 215.76,-30.03 329.41,-90.09 115.58,-61.99 209.01,-134.65 280.28,-217.96l124.25 81.37c-159.89,269.31 -415.12,433.99 -765.72,494.05 -77.05,11.62 -151.22,17.43 -222.49,17.43 -208.05,0 -381.42,-68.77 -520.11,-206.33 -138.7,-139.5 -208.05,-309.02 -208.05,-508.57 0,-199.56 60.68,-383.61 182.04,-552.17 121.36,-170.49 272.58,-302.24 453.65,-395.23 183.01,-93 363.12,-139.5 540.34,-139.5 177.23,0 330.37,40.69 459.44,122.06 130.99,81.37 197.44,190.84 199.37,328.39 3.85,137.56 -35.64,256.71 -118.47,357.46 -82.83,98.81 -187.82,174.36 -314.96,226.68 -252.35,102.68 -499.88,154.02 -742.6,154.02l-124.25 -5.81zm-17.34 -159.84c213.83,-7.75 385.27,-41.65 514.34,-101.71 130.99,-62 221.53,-131.75 271.61,-209.25 52.01,-79.43 78.02,-161.77 78.02,-247.02 0,-87.18 -22.15,-151.12 -66.46,-191.8 -44.3,-42.62 -91.5,-63.94 -141.59,-63.94 -123.28,0 -236.94,43.6 -340.96,130.78 -102.09,85.25 -180.11,189.87 -234.05,313.86 -53.94,122.06 -80.91,245.09 -80.91,369.08z"/>
  <path class="fil0" d="M-41246.2 -27523.55l813.19 0 0 211.67 69.02 0 55.75 -40.68 -124.77 -170.99 173.94 -126.93 124.77 170.98 -173.94 126.94 -124.77 -170.99 0 211.67 -1024.86 0 0 7192.55 5096.06 0 0 -7192.55 -1147.08 0 0 -211.67 935.42 0 0 7615.88 -4672.73 0 0 -7615.88zm987.13 -126.93l173.94 -126.92 94.66 189.31 178.65 -89.32 -94.66 -189.32 178.64 -89.32 94.66 189.32 -178.64 89.32 -94.66 -189.32 -178.64 89.32 -0.01 0 124.77 170.98 -173.94 126.93 -124.77 -170.98zm531.23 -305.57c236.08,-93.19 487.6,-141.04 741.41,-141.04l0 211.67 29.58 0 0 -211.67c237.61,31.27 471.51,86.09 698.26,163.66l-68.52 200.27 16.32 5.59 68.52 -200.28 14.77 5.5 -73.82 198.38 -14.77 -5.5 73.82 -198.38 -16.32 -5.58 -68.52 200.27c-213.46,-73.03 -433.67,-124.64 -657.35,-154.07l27.61 -209.86 -29.58 0 0 211.67c-227.2,0 -452.36,42.83 -663.69,126.25l-77.72 -196.88zm1500.34 33.7c258.21,96.08 500.47,230.52 718.61,398.8l-129.29 167.6c-201.3,-155.29 -424.86,-279.36 -663.14,-368.02l73.82 -198.38z"/>
  <path class="fil2" d="M-89897.6 -14405.34l-211.67 0c0,1222.83 -991.3,2214.13 -2214.13,2214.13l0 211.67c-1339.73,0 -2425.8,-1086.07 -2425.8,-2425.8l211.67 0c0,1222.83 991.3,2214.13 2214.13,2214.13l0 211.67c1339.73,0 2425.8,-1086.07 2425.8,-2425.8zm-4851.6 0c0,-1339.73 1086.07,-2425.8 2425.8,-2425.8l0 211.67c-1222.83,0 -2214.13,991.3 -2214.13,2214.13l-211.67 0zm2425.8 -2425.8c1339.73,0 2425.8,1086.07 2425.8,2425.8l-211.67 0c0,-1222.83 -991.3,-2214.13 -2214.13,-2214.13l0 -211.67z"/>
  <path class="fil1" d="M3230.55 -32751.99c1339.73,0 2425.83,1086.07 2425.83,2425.8 0,1339.73 -1086.09,2425.79 -2425.83,2425.79 -1339.72,-0.01 -2425.79,-1086.07 -2425.79,-2425.79 0,-1339.73 1086.07,-2425.79 2425.79,-2425.8l0 211.67c1222.84,0 2214.16,991.3 2214.17,2214.13l211.66 0 -211.66 0c0,1222.82 -991.33,2214.12 -2214.17,2214.12l0 211.67 0.01 -211.67c-1222.83,0 -2214.13,-991.3 -2214.13,-2214.12l-211.67 0 211.67 0c0,-1222.83 991.3,-2214.13 2214.13,-2214.13l-0.01 -211.67z"/>
  <path class="fil2" d="M-92749.07 -16534.5l187.21 284.11c3.45,5.24 6.38,10.8 8.75,16.62l59.76 147c18.3,45.03 84.01,38.53 93.13,-9.22l0 0c1.63,-8.54 5.52,-16.49 11.25,-23.03l60.47 -68.91c31.64,-36.07 69.74,-65.92 112.34,-88.01l144.67 -75.02 47.23 -23.55c23.52,-11.73 42.12,-31.42 52.5,-55.56l7.94 -18.49c0.71,-1.66 1.08,-3.44 1.08,-5.24l0 0c0,-15.76 22.57,-18.39 26.19,-3.05l5.8 24.57c0.95,4.01 0.33,8.22 -1.71,11.79l-16.42 28.65c-9.07,15.82 -22.29,28.86 -38.25,37.7l-50.9 28.2 -169.63 101.51c-26.19,15.67 -49.99,35.04 -70.64,57.51l-20.21 21.99c-26.58,28.92 -44.6,64.66 -52.04,103.23l-28.71 148.91c-1.03,5.32 1.61,10.67 6.46,13.09l0 0c5,2.49 11.06,1.22 14.65,-3.07l58.97 -70.57c12.22,-14.63 27.55,-26.35 44.87,-34.33l42.25 -19.44c26.68,-12.28 54.86,-21 83.81,-25.93l299.35 -50.97 53.38 -8.87c31.2,-5.19 61.59,-14.43 90.4,-27.49l8.29 -3.75c26.74,-12.13 51.57,-28.09 73.7,-47.4l3.22 -2.81c20.11,-17.55 37.54,-37.97 51.72,-60.59l4.26 -6.8c10.73,-17.13 19.01,-35.68 24.57,-55.11l5.27 -18.4c2.04,-7.1 3.07,-14.46 3.07,-21.84l0 -10.88c0,-26.85 -16.81,-50.82 -42.04,-59.97l-24.26 -8.8c-14.9,-5.4 -31.53,0.61 -39.53,14.29l-6.88 11.76c-13.02,22.26 -46.69,16.32 -51.31,-9.04l0 0c-1.99,-10.92 2.71,-21.97 11.95,-28.12l30.49 -20.27c18.89,-12.56 42.08,-16.88 64.22,-11.98l10.76 2.39c19.51,4.32 37.38,14.11 51.53,28.22l0 0c23.25,23.19 34.34,55.9 29.99,88.44l-5 37.39c-3.18,23.83 -11.07,46.79 -23.21,67.54l-37.1 63.43c-2.03,3.45 -4.76,6.44 -8.02,8.76l0 0c-25.06,17.86 -7.65,57.24 22.43,50.72l46.69 -10.12c7.25,-1.57 14.81,-1 21.74,1.66l66.8 25.63c20.06,7.69 36.24,23.03 44.98,42.66l1.19 2.67c11.46,25.7 7.8,55.63 -9.5,77.82l-6.87 8.8c-14.33,18.38 -38.15,26.59 -60.76,20.95l-24.86 -6.2c-3.05,-0.76 -5.55,-2.96 -6.68,-5.9l-6.08 -15.76c-3.61,-9.35 9.52,-15.77 14.69,-7.18l0 0c1.01,1.68 2.58,2.94 4.44,3.56l13.52 4.49c19.96,6.64 41.9,-0.88 53.59,-18.37l2.47 -3.71c7.21,-10.78 10.18,-23.84 8.34,-36.67l-0.35 -2.4c-3.16,-22.1 -18.55,-40.51 -39.73,-47.56l-16.58 -5.51c-15.76,-5.24 -32.7,-5.86 -48.81,-1.8l-622.39 156.96c-52.15,13.15 -98.06,44.14 -129.75,87.6l0 0c-11.87,16.27 -21.55,34.03 -28.8,52.83l-10.77 27.93c-13.26,34.38 -18.74,71.26 -16.04,108.01l26.39 359.65c7.07,96.37 128.41,134.41 189.22,59.31l0 0c4.09,-5.05 8.64,-9.72 13.58,-13.94l205.11 -175.33c14.25,-12.18 25.33,-27.62 32.31,-45.02l0 0c4.05,-10.1 9.51,-19.59 16.2,-28.17l7.99 -10.24c26.34,-33.78 41.61,-74.86 43.72,-117.63l2.77 -56.17c1.49,-30.19 -10.23,-59.53 -32.11,-80.38l-8.69 -8.29c-10.02,-9.54 -22.77,-15.72 -36.47,-17.67l-7.84 -1.12c-18.38,-2.62 -36.78,4.66 -48.4,19.14l0 0c-9.36,11.67 -13.3,26.78 -10.84,41.54l1.54 9.19c1.94,11.61 6.65,22.58 13.72,31.99l13.53 17.99c0.53,0.7 0.94,1.48 1.22,2.32l0 0c2.5,7.49 -6.04,13.81 -12.47,9.22l-33.76 -24.05c-2.88,-2.04 -5.21,-4.77 -6.79,-7.92l-6.16 -12.29c-5.37,-10.7 -8.16,-22.51 -8.16,-34.48l0 -1.61c0,-24.48 10.71,-47.74 29.32,-63.65l3.19 -2.72c16.81,-14.37 38.19,-22.27 60.31,-22.27l1.25 0c25.47,0 49.9,10.1 67.93,28.09l25.82 25.75c8.61,8.58 16.34,17.99 23.09,28.09l6.58 9.84 1.1 2.19c4.83,9.63 8.59,19.77 11.21,30.22l0 0c2.94,11.72 4.42,23.75 4.42,35.83l0 6.84 -6.09 79.03c-1.51,19.5 -5.98,38.66 -13.26,56.81l0 0c-3.82,9.53 -8.4,18.75 -13.7,27.55l-17.14 28.49 -1.23 2.46c-10.96,21.85 4.93,47.59 29.37,47.59l0 0c3.53,0 7.03,0.57 10.37,1.68l28.14 9.35c11.3,3.76 22.11,8.84 32.21,15.13l29.35 18.3c14.35,8.94 24.66,23.1 28.77,39.5l0 0c1.3,5.18 1.96,10.51 1.96,15.86l0 9.19c0,15.88 -5.16,31.33 -14.71,44.02l0 0c-6.83,9.09 -15.68,16.46 -25.85,21.53l-2.48 1.23c-10.21,5.09 -21.45,7.74 -32.85,7.74l0 0c-15.9,0 -31.37,-5.14 -44.1,-14.67l-11.75 -8.78c-1.39,-1.04 -2.56,-2.34 -3.46,-3.83l0 0c-6.91,-11.49 5.47,-24.89 17.47,-18.91l20.15 10.05c3.62,1.8 7.71,2.47 11.72,1.89l20.69 -2.94c18.79,-2.68 33.56,-17.44 36.25,-36.23l0 0c2.34,-16.3 -4.91,-32.5 -18.63,-41.62l-16.95 -11.26c-7.14,-4.75 -15.04,-8.24 -23.36,-10.31l-32.44 -8.09c-14.48,-3.61 -29.5,-4.51 -44.31,-2.67l0 0c-28.73,3.58 -55.22,17.33 -74.69,38.75l-154.86 170.41c-38.25,42.09 -71.54,88.44 -99.22,138.12l-3.11 5.59c-25.86,46.42 -47.02,95.3 -63.17,145.92l-1.45 4.54c-21.79,68.3 -34.81,139.1 -38.76,210.69l-14.97 271.76 0 0c-8.74,158.58 165.66,260.5 299.53,175.05l97.81 -62.43 270.1 -207.63c87.4,-67.19 167.86,-142.96 240.18,-226.17l0 0 0 0c61.12,-94.2 110.48,-195.51 146.98,-301.7l29.66 -86.26c10.49,-30.51 18.43,-61.84 23.75,-93.67l6.7 -40.08c6.88,-41.18 6.46,-83.26 -1.26,-124.29l-7.87 -41.86c-3.67,-19.52 -11.25,-38.1 -22.29,-54.61l0 0 -21.29 -29.73c-13.53,-18.89 -30.99,-34.63 -51.18,-46.13l-6.81 -3.88c-13.93,-7.94 -29.29,-13.05 -45.21,-15.03l-15.71 -1.96c-17.53,-2.19 -35.29,1.72 -50.29,11.07l-22.91 14.28c-12.6,7.86 -19.23,22.54 -16.78,37.19l0 0c2.58,15.46 14.71,27.57 30.17,30.14l22.67 3.77c1.1,0.18 2.22,0.09 3.28,-0.26l0 0c7.58,-2.52 12.6,7.78 5.95,12.2l-5.61 3.73c-1.27,0.84 -2.76,1.29 -4.29,1.29l-20.41 0c-25.81,0 -48.16,-17.92 -53.78,-43.11l0 0c-4.39,-19.7 2.35,-40.23 17.55,-53.5l16.36 -14.28c16.69,-14.56 38.1,-22.59 60.25,-22.59l20.23 0c29.81,0 58.9,9.15 83.34,26.22l14.79 10.32c20.69,14.45 38.51,32.63 52.54,53.61l4.89 7.32c15.93,23.83 27.64,50.23 34.61,78.03l6.2 24.72 0 0c7.31,21.88 35.78,27.26 50.57,9.56l6.22 -7.45c1.17,-1.4 2.45,-2.71 3.83,-3.92l49.96 -43.59c9.89,-8.63 20.84,-15.96 32.58,-21.82l7.12 -3.55c16.7,-8.32 35.09,-12.65 53.74,-12.65l8.21 0c29.89,0 58.29,13.04 77.78,35.7l5.35 6.23c9.24,10.75 15.22,23.92 17.23,37.95l0.35 2.49c3.1,21.66 -4.19,43.52 -19.69,58.97l-13.58 13.55c-2.35,2.34 -5.42,3.81 -8.7,4.18l-5.97 0.66c-14.42,1.59 -20.69,-17.7 -8.09,-24.89l0 0c1.59,-0.9 2.97,-2.12 4.07,-3.57l4.33 -5.77c11.59,-15.41 12.89,-36.24 3.3,-52.96l-2.98 -5.21c-9.21,-16.08 -25.62,-26.71 -44.06,-28.55l-17.76 -1.77c-23.44,-2.34 -46.89,4.41 -65.51,18.85l-11.69 9.07c-22.44,17.4 -38.51,41.71 -45.73,69.17l-122.71 466.55 -64.36 168.49c-1.7,4.45 -3.93,8.68 -6.63,12.6l0 0c-31.03,45.01 9.67,104.61 62.89,92.08l191.95 -45.16c7.83,-1.84 15.82,-2.98 23.85,-3.41l406.48 -21.72c33.04,-1.77 65.57,-8.92 96.3,-21.18l20.35 -8.12c11.21,-4.47 21.79,-10.4 31.46,-17.63l0 0c12.51,-9.35 23.33,-20.77 32.01,-33.75l12.71 -19.01c5.04,-7.54 8.55,-16.01 10.34,-24.9l0 0c3.62,-18.08 -0.1,-36.85 -10.34,-52.18l-0.73 -1.09 0 0c-10.22,-15.29 -28.32,-23.37 -46.53,-20.78l-2.16 0.31c-16.66,2.37 -31.09,12.76 -38.64,27.81l-4.69 9.35 0 0c-3.55,8.86 -16.73,6.32 -16.73,-3.23l0 -2.93c0,-1.43 0.34,-2.85 0.98,-4.14l6.64 -13.23c10.9,-21.74 32.07,-36.48 56.25,-39.16l1.22 -0.14c22.32,-2.47 44.54,5.31 60.44,21.16l11.27 11.25c19.2,19.14 28.24,46.23 24.4,73.07l0 0c-1.49,10.41 -4.88,20.46 -10,29.64l-26.4 47.4c-5.01,8.98 -12.61,16.24 -21.81,20.83l0 0c-36.66,18.28 -37.92,70.13 -2.19,90.17l49.78 27.92 164.64 114.94c1.73,1.2 3.02,2.93 3.69,4.93l0 0c2.74,8.22 -5.73,15.7 -13.54,11.96l-188.25 -90.12 -41.3 -17.15c-39.29,-16.33 -80.1,-28.75 -121.84,-37.07l0 0c-41.71,-8.32 -84.15,-12.52 -126.68,-12.52l-86.62 0 -265.12 23.33c-12.79,1.13 -25.35,4.13 -37.28,8.9l-136.8 54.74c-58.24,23.3 -59.2,105.4 -1.51,130.06l0 0c12.55,5.36 23.27,14.26 30.85,25.6l64.08 95.85c27.43,41.04 48.05,86.23 61.07,133.84l28.08 102.69c18.32,66.97 43.59,131.83 75.41,193.54l20.74 40.22c53.97,104.65 130.55,195.99 224.18,267.4l0 0 0 0c-120.08,-70.76 -216.9,-175.02 -278.59,-300l-148.15 -300.1c-16.56,-33.55 -37.97,-64.49 -63.54,-91.81l-17.31 -18.49c-39.94,-42.68 -91.57,-72.64 -148.44,-86.14l-39.06 -9.28c-32.2,-7.65 -65.96,-5.5 -96.94,6.17l0 0c-131.29,49.47 -145.93,229.35 -24.37,299.39l44.6 25.7c18.08,10.42 34.32,23.73 48.08,39.41l99.5 113.4c36.87,42.03 76.89,81.19 119.7,117.15l94.63 79.46 -107.03 -47.04c-4.55,-1.99 -8.74,-4.7 -12.44,-8.01l0 0c-30.13,-27.05 -78.07,-5.66 -78.07,34.83l0 4.85c0,19.47 -11.54,37.09 -29.39,44.88l-72.99 31.85c-20.14,8.78 -42.95,9.14 -63.35,1l0 0c-31.26,-12.46 -51.77,-42.72 -51.77,-76.38l0 -12.28c0,-15.62 3.65,-31.02 10.65,-44.98l14.45 -28.82 -6.29 37.63c-1.38,8.24 -1.61,16.63 -0.68,24.94l2.37 21.32c2.76,24.79 20.66,45.24 44.86,51.28l0 0c16.92,4.22 34.84,0.82 49.04,-9.3l16.03 -11.42c13.24,-9.43 24.04,-21.87 31.52,-36.31l3.76 -7.26c9.93,-19.17 15.11,-40.44 15.11,-62.03l0 0c0,-27.49 -8.4,-54.33 -24.08,-76.91l-22.69 -32.69c-18.84,-27.14 -42.65,-50.47 -70.16,-68.76l-36.16 -24.04c-64.33,-42.77 -137.87,-69.71 -214.61,-78.61l-107.45 -12.46c-86.94,-10.08 -174.39,13.94 -243.99,67.02l0 0c-22.4,17.08 -42.57,36.89 -60.06,58.98l-49.97 63.12c-32.74,41.35 -62.08,85.27 -87.74,131.34l-41.37 74.27c-113.18,203.16 -190.62,424.25 -228.96,653.62l-6.66 39.86c-18.25,109.22 -27.42,219.77 -27.42,330.52l0 0c0,232.12 40.3,462.48 119.12,680.81l31.45 87.13 115.19 221.93c166.15,320.08 252.88,675.43 252.88,1036.07l0 0c0,112.2 -8.4,224.26 -25.13,335.21l-18.77 124.57c-7.61,50.48 -11.44,101.46 -11.44,152.52l0 90.53c0,49.48 7.94,98.65 23.52,145.62l0 0c20.96,63.21 55.33,121.15 100.74,169.86l41.65 44.68c45.34,48.62 97.01,90.94 153.62,125.81l199.12 122.65 0 0c55.29,33.08 116.22,55.67 179.71,66.63l338.93 58.5 110 20.9c43.66,8.29 86.38,20.98 127.5,37.86l0 0c53.35,21.91 103.6,50.72 149.47,85.7l18.72 14.28c36.2,27.61 70.09,58.12 101.35,91.23l41.48 43.96c30.15,31.95 64.17,60.02 101.26,83.56l0 0c24.07,15.27 49.33,28.58 75.55,39.78l19.17 8.19 40.16 13.35c6.67,2.22 13.53,3.84 20.5,4.83l29.38 4.19c11.98,1.7 24.14,-1.41 33.83,-8.65l0 0c11.54,-8.63 18.34,-22.2 18.34,-36.61l0 -11.13c0,-20.68 -9.41,-40.22 -25.57,-53.12l-11.95 -9.52c-2.83,-2.27 -6.17,-3.81 -9.72,-4.52l-12.75 -2.55c-18.77,-3.74 -20.87,-29.75 -2.95,-36.45l0 0c2.88,-1.08 5.97,-1.44 9.02,-1.06l18.76 2.34c27.64,3.45 52.42,18.73 67.9,41.89l2.5 3.75c14.97,22.4 20.84,49.66 16.4,76.24l-3.9 23.33c-3.75,22.4 -17.37,41.93 -37.1,53.18l0 0c-17.52,9.98 -38.3,12.54 -57.72,7.12l-163.92 -45.77c-9.87,-2.76 -19.34,-6.77 -28.18,-11.95l-284.31 -166.42c-24.5,-14.34 -52.32,12.69 -38.7,37.59l0 0c1.14,2.09 2.01,4.32 2.59,6.63l14.51 57.87c6.37,25.41 6.08,52.03 -0.83,77.3l-1.78 6.51c-8.25,30.18 -26.82,56.52 -52.48,74.44l-10.02 6.99c-21.78,15.2 -48.57,21.43 -74.81,17.41l-19.09 -2.93c-29.55,-4.53 -53.5,-26.35 -60.77,-55.35l-3.24 -12.94c-0.98,-3.89 -0.94,-7.96 0.12,-11.83l0 0c6.33,-23.15 39.3,-22.8 45.13,0.48l0.29 1.17c1.97,7.84 7.81,14.13 15.48,16.69l12.92 4.29c15.56,5.17 32.68,2.12 45.5,-8.1l5.23 -4.17c10.41,-8.3 17.8,-19.8 21.04,-32.72l7.26 -28.97c2.97,-11.86 4.48,-24.04 4.48,-36.26l0 -1.11c0,-30.79 -9.14,-60.89 -26.25,-86.48l0 0c-15.67,-23.44 -37.41,-42.18 -62.9,-54.23l-119.98 -56.68 -154.57 -61.65c-8.45,-3.37 -17.32,-5.59 -26.36,-6.59l-200.02 -22.17c-45.78,-5.07 -69.18,53.35 -32.56,81.28l0 0c7.78,5.93 13.43,14.21 16.13,23.61l79.5 277.51 -106.54 -132.81c-40.3,-50.24 -87.63,-94.39 -140.55,-131.1l0 0c-74.3,-51.55 -158.28,-87.51 -246.87,-105.69l-122.68 -25.19c-18.27,-3.75 -36.88,-5.65 -55.53,-5.65l-72.89 0c-26.42,0 -51.77,10.48 -70.49,29.15l0 0c-18.78,18.73 -29.33,44.16 -29.33,70.68l0 85.64c0,31.88 -4.98,63.57 -14.76,93.92l-60.53 187.79 0 -213.9c0,-29.63 -4.61,-59.08 -13.66,-87.3l0 0c-32.7,-101.91 -119.63,-177.01 -225.22,-194.56l-27.78 -4.62c-33.94,-5.64 -68.54,-5.97 -102.58,-0.97l-233.05 34.17 -103.78 10.35c-41.61,4.15 -81.39,19.21 -115.33,43.65l-29.49 21.24c-43.5,31.33 -69.28,81.67 -69.28,135.28l0 12.04c0,38.93 16.3,76.09 44.94,102.45l56.27 51.8c4.61,4.25 11.25,5.51 17.1,3.24l0 0c18.35,-7.12 31.45,18.15 15.06,29.05l-15.16 10.07c-5.8,3.86 -13.28,4.12 -19.33,0.67l-113.39 -64.62c-34.07,-19.41 -61.16,-49.07 -77.43,-84.75l0 0c-11.07,-24.3 -16.81,-50.7 -16.81,-77.41l0 -1.87c0,-42.84 14.1,-84.49 40.1,-118.54l90.28 -118.16c2.3,-3.02 4.94,-5.77 7.87,-8.19l0 0c41.66,-34.6 7.1,-101.62 -45.25,-87.74l-83.28 22.08c-6.44,1.7 -12.61,4.33 -18.31,7.8l-334.38 203.33 -88.11 65.91c-29.61,22.14 -50.87,53.66 -60.3,89.41l-18.37 69.63c-5.4,20.46 1.79,42.18 18.33,55.38l4.49 3.58c6.55,5.23 14.68,8.07 23.06,8.07l0 0c39.78,0 51.49,54.22 15.26,70.64l-13.84 6.28c-9.23,4.18 -19.7,4.73 -29.32,1.53l-37.28 -12.39c-45.61,-15.16 -80.32,-52.58 -92.01,-99.21l-8.16 -32.57c-9.71,-38.74 -7.71,-79.48 5.76,-117.07l9.09 -25.4c8.02,-22.41 18.77,-43.74 32,-63.52l6.82 -10.21c37.16,-55.59 89.49,-99.35 150.78,-126.1l0 0c26.55,-11.58 51.55,-26.42 74.44,-44.17l84.73 -65.72c70.89,-54.99 147.68,-101.91 228.95,-139.9l145.4 -67.97 -234.22 75.08 -42.44 11.67c-132.92,36.57 -260.74,89.59 -380.51,157.85l-32.65 18.61c-91.9,52.36 -177.27,115.43 -254.32,187.89l-106.96 100.57c-46.18,43.42 -99.78,78.19 -158.26,102.64l-112.5 47.05c-37.8,15.81 -79.85,18.31 -119.26,7.08l-1.7 -0.49c-35.46,-10.1 -66.83,-31.13 -89.64,-60.08l-18.24 -23.15c-24.22,-30.74 -31.79,-71.43 -20.25,-108.83l0 0c9.6,-31.11 31.52,-56.94 60.66,-71.47l61.76 -30.8c15.51,-7.73 34.29,-3.81 45.4,9.49l12.96 15.51c17.8,21.3 -0.48,53.24 -27.86,48.69l0 0c-12.46,-2.07 -24.88,3.91 -31.03,14.95l-10.16 18.23c-12.67,22.74 -8.69,51.14 9.75,69.52l0 0c6.99,6.98 15.65,12.06 25.14,14.76l5.92 1.69c24.1,6.87 50.02,2.33 70.35,-12.32l720.67 -519.06 0 0c77.68,-49.8 162.07,-88.24 250.63,-114.16l476.25 -139.39c104.58,-30.6 198.87,-89.09 272.76,-169.18l0 0c52.48,-56.9 93.48,-123.41 120.73,-195.87l59.12 -157.24 57.12 -243.37c23.19,-98.82 34.9,-199.98 34.9,-301.48l0 0c0,-163.69 -30.45,-325.94 -89.81,-478.49l-121.96 -313.44c-149.47,-384.14 -221.12,-794.16 -210.79,-1206.23l9.44 -376.81 -21.5 -457.49c-2.35,-50.01 -18.23,-98.45 -45.94,-140.15l0 0c-19.63,-29.54 -44.75,-55.03 -74,-75.09l-39.79 -27.28c-32.98,-22.61 -69.27,-39.96 -107.58,-51.42l0 0c-71.46,-21.38 -147.59,-21.58 -219.16,-0.59l-32.54 9.55 0 0c-119.68,54.25 -219.36,144.61 -285.06,258.41l-17.67 30.61c-26.75,46.33 -48.39,95.42 -64.54,146.42l-76.08 240.29 -14.93 69.45c-6.42,29.88 1.28,61.05 20.88,84.5l1.24 1.48c6.31,7.56 13.85,14 22.3,19.05l0 0c18.7,11.19 40.9,15.03 62.28,10.77l46.94 -9.37c2.27,-0.45 4.33,-1.62 5.89,-3.33l0 0c8.91,-9.76 24.23,1.87 17.21,13.07l-16.87 26.91c-1.76,2.81 -4.49,4.89 -7.68,5.85l-50.75 15.18c-18.48,5.53 -37.82,7.55 -57.04,5.95l-3.56 -0.3c-43.25,-3.59 -83.12,-24.8 -110.28,-58.65l0 0c-35.73,-44.55 -44.68,-104.9 -23.4,-157.9l110.09 -274.26c1.87,-4.65 3.06,-9.55 3.54,-14.54l3.79 -39.65c4.14,-43.22 -51.93,-63.66 -76.58,-27.91l0 0 -69.9 109.55c-28.46,44.61 -81.38,67.17 -133.27,56.82l-19.59 -3.91c-37.53,-7.48 -67.2,-36.26 -75.82,-73.54l-2.79 -12.05c-5.13,-22.14 0.43,-45.41 15,-62.84l14.96 -17.91c2.39,-2.86 5.8,-4.69 9.5,-5.1l6.47 -0.72c14.15,-1.56 20.31,17.37 7.94,24.42l0 0c-2.25,1.28 -4.07,3.2 -5.23,5.52l-4.26 8.48c-6.68,13.33 -6.24,29.11 1.17,42.04l4.23 7.37c10.74,18.76 30.7,30.32 52.31,30.32l48.71 0 58.56 -108.45 133.24 -201.32c3.15,-4.77 7.32,-8.77 12.21,-11.72l37.76 -22.76c28.37,-17.11 59.49,17.56 39.42,43.93l0 0 -51.2 63.09c-69.54,85.69 -146.5,165.07 -229.99,237.23l0 0 108.75 -125.13 110.32 -139.36c92.34,-116.65 211.92,-208.82 348.23,-268.43l77.27 -33.78c63.78,-27.89 132.64,-42.29 202.26,-42.29l0 0c54.12,0 107.89,8.7 159.25,25.78l98.12 32.62 170.78 74.05c14.28,6.19 27.21,15.1 38.08,26.24l9.98 10.24c45.98,47.15 123.16,42.2 162.74,-10.42l0 0 0 0c49.36,-65.64 81.13,-143.85 92.02,-225.25l0 0 0 -86.45c0,-25.74 -2.14,-51.45 -6.38,-76.84l0 0c-6.87,-41.12 -19.23,-81.12 -36.74,-118.95l-23.81 -51.45 -20.42 -44.12c-19.69,-42.55 -46.76,-81.28 -79.96,-114.39l0 0 -54.83 -47.39c-46.64,-40.31 -100.75,-71.07 -159.26,-90.51l0 0c-24.53,-8.16 -49.7,-14.28 -75.24,-18.3l-43.22 -6.81c-51.48,-8.1 -103.52,-12.18 -155.63,-12.18l-22.09 0 0 0c-72.14,0 -143.93,10.14 -213.25,30.11l-244.68 70.49c-18.11,5.22 -35.58,12.46 -52.06,21.6l-16.37 9.07c-22.45,12.43 -41.77,29.81 -56.51,50.81l-9.78 13.93c-17.02,24.24 -24.75,53.79 -21.8,83.26l0.22 2.14c2.32,23.2 11.56,45.17 26.52,63.06l7.12 8.53c7.72,9.23 17.6,16.4 28.78,20.86l9.83 3.92c9.66,3.85 20.38,4.14 30.24,0.81l12.57 -4.25c3.58,-1.21 6.49,-3.87 8.03,-7.33l6.84 -15.39c4.37,-9.84 19.07,-6.72 19.07,4.04l0 0c0,2 -0.6,3.95 -1.72,5.6l-10.11 14.89c-10.53,15.51 -26.96,26.03 -45.45,29.1l-3.96 0.66c-11.37,1.89 -23.02,1.23 -34.11,-1.93l-6.1 -1.74c-23.06,-6.57 -43.22,-20.76 -57.18,-40.25l-2.51 -3.5c-11.64,-16.26 -18.98,-35.21 -21.33,-55.08l-0.77 -6.57c-7.37,-62.47 -54.42,-112.95 -116.22,-124.69l-139.13 -26.43c-69.67,-13.23 -131.78,-52.26 -173.92,-109.3l-20.01 -27.08c-20.56,-27.82 -32.27,-61.19 -33.6,-95.76l-1.52 -39.56c-1,-25.9 9.53,-50.91 28.75,-68.29l6.82 -6.17c11.71,-10.59 26.93,-16.46 42.72,-16.46l1.79 0c20.14,0 38.96,10.06 50.15,26.8l12.5 18.7c1.93,2.89 2.49,6.5 1.53,9.84l0 0c-3.5,12.21 -21.22,11.18 -23.02,-1.39l0 0c-0.36,-2.53 -1.54,-4.87 -3.34,-6.67l-6.32 -6.3c-9.87,-9.85 -24.3,-13.58 -37.72,-9.76l-5.81 1.66c-18.81,5.35 -32.6,21.43 -35.03,40.84l-3.02 24.11c-0.88,7.05 -0.88,14.19 0,21.25l1.11 8.83c3.86,30.82 16.8,59.8 37.17,83.25l13.23 15.22c40.95,47.12 99.79,74.9 162.2,76.59l190.8 5.14c13.64,0.37 27.15,-2.66 39.32,-8.81l0 0c57.58,-29.1 60.8,-110.12 5.72,-143.69l-12.83 -7.82c-7.58,-4.62 -14.44,-10.33 -20.36,-16.94l-107.58 -120.16c-56.01,-62.56 -105.2,-130.91 -146.74,-203.9l-67.56 -118.71c-30.16,-52.99 -50.28,-111.09 -59.35,-171.38l-5.87 -39.04c-3.65,-24.25 -3.55,-48.92 0.29,-73.15l9.8 -61.92c5.96,-37.67 29.76,-70.13 63.89,-87.15l14.11 -7.03c29.97,-14.95 65.7,-12.32 93.16,6.85l10.95 7.65c17.65,12.31 28.16,32.74 28.16,54.26l0 0c0,24.6 -13.92,47.41 -35.93,58.39l-25.43 12.68c-3.48,1.73 -7.59,1.62 -10.97,-0.31l-4.64 -2.64c-10.19,-5.81 -4.85,-21.43 6.77,-19.77l0 0c2.13,0.3 4.31,-0.05 6.24,-1.02l8.24 -4.1c13.64,-6.8 22.26,-20.73 22.26,-35.97l0 -3.28c0,-13.84 -6.3,-26.93 -17.12,-35.57l-7.16 -5.7c-11.36,-9.07 -25.46,-14 -40,-14l0 0c-12.63,0 -24.99,3.73 -35.51,10.72l-4.47 2.98c-18.87,12.54 -31.71,32.35 -35.44,54.71l-12.63 75.55c-4.38,26.22 -4.69,52.96 -0.92,79.28l2.67 18.68 0 0c11.12,55.41 28.99,109.24 53.24,160.28l4.89 10.29c22.54,47.45 49.8,92.52 81.38,134.5l26.16 34.79c34.51,45.89 72.23,89.27 112.88,129.81l159.95 159.51c14.3,14.26 30.8,26.12 48.88,35.13l0 0c26.06,13 54.79,19.77 83.92,19.77l18.21 0c19.62,0 39.17,-2.18 58.31,-6.49l100.87 -22.71c86.17,-19.41 174.23,-29.2 262.56,-29.2l143.15 0 175.67 25.03 89.97 17.94c51.13,10.2 100,29.56 144.25,57.14l0 0 100.38 66.74 36.85 30.62c8.62,7.16 19.49,11.09 30.7,11.09l0 0c23.71,0 43.87,-17.29 47.48,-40.72l9.08 -58.83c0.91,-5.93 1.37,-11.91 1.37,-17.91l0 -117.77c0,-59.48 -11.92,-118.35 -35.05,-173.15l0 0c-21.07,-49.9 -51.07,-95.54 -88.52,-134.66l-38.07 -39.78c-53.64,-56.03 -115.7,-103.34 -183.95,-140.21l-22.52 -12.16c-50.05,-27.04 -102.53,-49.31 -156.76,-66.52l-42.04 -13.34c-40.26,-12.77 -79.46,-28.65 -117.26,-47.5l0 0c-40.15,-20.02 -78.58,-43.32 -114.9,-69.66l-129.46 -93.9 -267.69 -250.27 -74.84 -68.42c-16.48,-15.07 -37.81,-23.76 -60.13,-24.5l-186.55 -6.2c-11.31,-0.37 -16.7,-14.07 -8.69,-22.05l0 0c2.53,-2.53 6,-3.89 9.58,-3.77l182.87 6.52c29.83,1.06 58.69,10.89 82.96,28.27l241.06 172.6c18.03,12.91 42.75,-2.1 39.6,-24.05l0 0 -14.33 -92.93c-1.6,-10.32 -4.36,-20.42 -8.25,-30.11l-17.88 -44.58c-6.07,-15.14 -19.37,-26.18 -35.36,-29.37l-3.14 -0.63c-8.46,-1.69 -17.25,-0.51 -24.97,3.34l-6.8 3.39c-9.04,4.51 -14.75,13.73 -14.75,23.83l0 3.83c0,3.07 0.97,6.06 2.75,8.56l3.71 5.18c8.31,11.6 -5,26.37 -17.4,19.3l0 0c-3.64,-2.07 -6.09,-5.74 -6.61,-9.9l-2.76 -21.99c-2.89,-23.09 8.4,-45.65 28.62,-57.18l2.54 -1.44c14.46,-8.25 31.64,-10.32 47.65,-5.76l7.65 2.18c16.43,4.68 30,16.29 37.17,31.79l15.28 33.01c10.97,23.72 42.91,27.94 59.66,7.88l0 0c3.79,-4.54 8.65,-8.06 14.14,-10.25l15.4 -6.14c11.93,-4.76 24.66,-7.2 37.51,-7.2l11.32 0c7.31,0 14.54,1.39 21.33,4.09l0 0c19.47,7.77 33.17,25.5 35.78,46.3l1.37 10.93c1.81,14.41 -0.7,29.03 -7.21,42.01l-12.84 25.6c-1.44,2.89 -4.07,4.99 -7.2,5.77l-6.79 1.69c-10.72,2.68 -17.02,-11.62 -7.83,-17.73l0 0c1.82,-1.21 3.19,-3 3.89,-5.07l4.6 -13.78c1.78,-5.33 2.69,-10.91 2.69,-16.53l0 -19.97c0,-12.9 -8.26,-24.35 -20.5,-28.42l0 0c-3.04,-1.01 -6.23,-1.53 -9.44,-1.53l-3.35 0c-15.91,0 -30.89,7.48 -40.45,20.2l-19.31 25.67c-10.33,13.74 -17.45,29.63 -20.83,46.49l-3.23 16.1 -4.45 26.6c-2.58,15.44 -1.68,31.26 2.63,46.31l0 0c6.59,23 20.83,43.07 40.36,56.89l161.07 114c44.85,31.74 96.04,53.41 150.05,63.51l40.91 7.65c7.27,1.36 14.69,1.71 22.06,1.04l41.05 -3.72c21.96,-1.99 38.07,-21.51 35.87,-43.44l-2.2 -21.93c-1.16,-11.6 7.95,-21.67 19.61,-21.67l0 0c7.2,0 13.83,3.93 17.28,10.25l27.64 50.53c11.05,20.21 27.83,36.69 48.22,47.4l120.45 63.22c4.8,2.52 9.38,5.45 13.68,8.77l0 0c65.98,50.84 160.57,-3.02 150.52,-85.71l-6.41 -52.75 -101.07 -467.96c-10.54,-48.83 -32.49,-94.48 -64.05,-133.22l-26.85 -32.96c-22.1,-27.11 -51.74,-47.07 -85.18,-57.33l-8.3 -2.55c-31.87,-9.78 -66.09,-8.75 -97.32,2.93l-46.7 17.47c-23.96,8.96 -40.97,30.48 -44.15,55.86l-1.82 14.51c-0.89,7.06 0.8,14.2 4.75,20.11l0 0c6.46,9.66 17.97,14.64 29.43,12.73l29.54 -4.91c1.21,-0.2 2.37,-0.62 3.41,-1.25l0 0c9.08,-5.43 19.1,5.45 12.94,14.05l-11.69 16.32c-1.83,2.55 -4.48,4.42 -7.51,5.28l-27.29 7.78c-16.68,4.75 -34.64,1.15 -48.2,-9.67l0 0c-12.78,-10.19 -20.21,-25.64 -20.21,-41.98l0 -23.4c0,-22.18 7.2,-43.76 20.54,-61.48l5.4 -7.19c15.79,-20.99 37.6,-36.68 62.52,-44.96l68.28 -22.7c12.28,-4.08 25.56,-4.08 37.85,0l18.25 6.07c42.96,14.28 82.22,-29.67 63.21,-70.76l0 0 -100.39 -208.56z"/>
 </g>
</svg>
